<svg xmlns="http://www.w3.org/2000/svg" style="display: none;"><symbol id="computer" viewBox="0 0 64 64"><title>computer</title><g id="color"><g><rect fill="#d0d8da" height="32" rx="4" width="48" x="8" y="19"/><path d="m47 38a12 12 0 0 1 -12-12v-7h-23a4 4 0 0 0 -4 4v24a4 4 0 0 0 4 4h40a4 4 0 0 0 4-4v-9z" fill="#93999a"/><path d="m16 57h32a4 4 0 0 1 4 4 0 0 0 0 1 0 0h-40a0 0 0 0 1 0 0 4 4 0 0 1 4-4z" fill="#f9e109"/><path d="m45 57h-26l3.317-1.658a4.856 4.856 0 0 0 2.683-4.342h14a4.856 4.856 0 0 0 2.683 4.342z" fill="#fcbc04"/><path d="m8 45h48a0 0 0 0 1 0 0v2a4 4 0 0 1 -4 4h-40a4 4 0 0 1 -4-4v-2a0 0 0 0 1 0 0z" fill="#f9e109"/><g><g fill="#84d2f4"><path d="m16 17h4v4h-4z"/><path d="m20 17h4v4h-4z"/><path d="m24 17h4v4h-4z"/><path d="m16 13h4v4h-4z"/><path d="m28 29h4v4h-4z"/><path d="m28 25h4v4h-4z"/><path d="m16 21h4v4h-4z"/><path d="m20 21h4v4h-4z"/><path d="m24 21h4v4h-4z"/><path d="m16 25h4v4h-4z"/><path d="m20 25h4v4h-4z"/><path d="m24 25h4v4h-4z"/></g><path d="m16 29h12v10h-12z" fill="#f9e109"/><path d="m28 37h6v2h-6z" fill="#84d2f4"/><path d="m12 33h4v4h-4z" fill="#84d2f4"/><path d="m32 29h-4v-4z" fill="#57b7eb"/><path d="m32 33h-4v-4z" fill="#57b7eb"/><path d="m28 25h-4v-4z" fill="#57b7eb"/><path d="m28 29h-4v-4z" fill="#57b7eb"/><path d="m24 25h-4v-4z" fill="#57b7eb"/><path d="m24 29h-4v-4z" fill="#57b7eb"/><path d="m20 25h-4v-4z" fill="#57b7eb"/><path d="m28 21h-4v-4z" fill="#57b7eb"/><path d="m24 21h-4v-4z" fill="#57b7eb"/><path d="m20 21h-4v-4z" fill="#57b7eb"/><path d="m20 17h-4v-4z" fill="#57b7eb"/><path d="m20 29h-4v-4z" fill="#57b7eb"/><path d="m28 33h6v4h-6z" fill="#84d2f4"/><path d="m34 37h-6v-4h1z" fill="#57b7eb"/><path d="m34 39h-6v-2h2z" fill="#57b7eb"/><path d="m12 37h4v2h-4z" fill="#84d2f4"/><path d="m16 37h-4v-4z" fill="#57b7eb"/><path d="m16 39h-4v-2h1z" fill="#57b7eb"/><path d="m24 37a6 6 0 0 1 -6-6v-2h-2v10h12v-2z" fill="#fcbc04"/><path d="m21 33h2a1 1 0 0 1 1 1v5a0 0 0 0 1 0 0h-4a0 0 0 0 1 0 0v-5a1 1 0 0 1 1-1z" fill="#84d2f4"/><path d="m23 33h-2a1 1 0 0 0 -1 1h2a1 1 0 0 1 1 1v1.91a5.97 5.97 0 0 1 -3-1.452v3.542h4v-5a1 1 0 0 0 -1-1z" fill="#57b7eb"/></g><g><path d="m41 16h3a0 0 0 0 1 0 0v6a0 0 0 0 1 0 0h-6a0 0 0 0 1 0 0v-3a3 3 0 0 1 3-3z" fill="#84d2f4"/><path d="m38 22h6v4h-6z" fill="#fcbc04"/><path d="m43 20a2 2 0 0 1 -2-2v-2a3 3 0 0 0 -3 3v3h6v-2z" fill="#57b7eb"/><path d="m40 22h-2v4h6v-2h-2a2 2 0 0 1 -2-2z" fill="#e59730"/></g><path d="m55 48h-40a3.992 3.992 0 0 1 -3.859-3h-3.141v2a4 4 0 0 0 4 4h40a4 4 0 0 0 3.892-3.108 3.974 3.974 0 0 1 -.892.108z" fill="#fcbc04"/><path d="m25 51a4.856 4.856 0 0 1 -2.683 4.342l-3.317 1.658 20-6z" fill="#e59730"/><path d="m19 59a2.99 2.99 0 0 1 -2.816-2h-.184a4 4 0 0 0 -4 4h40a3.955 3.955 0 0 0 -.555-2z" fill="#fcbc04"/></g></g><g id="Outline_copy" data-name="Outline copy"><g fill="#323232"><path d="m56 31a1 1 0 0 0 -1 1v15a3 3 0 0 1 -3 3h-40a3 3 0 0 1 -3-3v-1h43a1 1 0 0 0 0-2h-43v-21a3 3 0 0 1 3-3 1 1 0 0 0 0-2 5.006 5.006 0 0 0 -5 5v24a5.006 5.006 0 0 0 5 5h11.866a3.829 3.829 0 0 1 -2 2.447l-3.102 1.553h-2.764a5.006 5.006 0 0 0 -5 5 1 1 0 0 0 1 1h29a1 1 0 0 0 0-2h-27.829a3.006 3.006 0 0 1 2.829-2h32a3.006 3.006 0 0 1 2.829 2h-5.829a1 1 0 0 0 0 2h7a1 1 0 0 0 1-1 5.006 5.006 0 0 0 -5-5h-2.764l-3.1-1.553a3.828 3.828 0 0 1 -2-2.447h11.864a5.006 5.006 0 0 0 5-5v-15a1 1 0 0 0 -1-1zm-15.164 25h-17.671a5.792 5.792 0 0 0 2.741-4h12.188a5.8 5.8 0 0 0 2.742 4z"/><path d="m52 18h-3v-10h7a1 1 0 0 0 .707-1.707l-4-4a1 1 0 0 0 -.707-.293h-29a1 1 0 0 0 -.707.293l-4 4a1 1 0 0 0 .707 1.707h4.5v2a1 1 0 0 0 1 1 .5.5 0 1 1 -.5.5 1 1 0 0 0 -2 0 2.5 2.5 0 1 0 3.5-2.291v-1.209h4.5a1 1 0 0 0 0-2h-.586l1.586-1.586 3.293 3.293a1 1 0 0 0 .707.293h8v3a1 1 0 0 0 .293.707l3.293 3.293-1.586 1.586v-.586a1 1 0 0 0 -1-1h-3a4 4 0 0 0 -3.858 3h-5.142a1 1 0 0 0 0 2h5v6a1 1 0 0 0 1 1h5v12a1 1 0 0 0 1.447.9l2.553-1.282v.382a1 1 0 0 0 1 1h3a1 1 0 0 0 0-2h-2v-18h3a3 3 0 0 1 3 3v5a1 1 0 0 0 2 0v-5a5.006 5.006 0 0 0 -5-5zm0-13.586 1.586 1.586h-3.172zm-4 1.172-1.586-1.586h3.172zm-7.414.414h-3.172l1.586-1.586zm.828-2h1.586v1.586zm3.586 1.414 1.586 1.586-1.586 1.586zm-16.414-1.414-1.586 1.586-1.586-1.586zm-5.586.414 1.586 1.586h-3.172zm10.414-.414h3.172l-1.586 1.586zm12 7 1.586-1.586v3.172zm1.586 6.414v3.172l-1.586-1.586zm-2 4 1.586 1.586-1.586 1.586zm0 7 1.586 1.586-1.586 1.586zm.914-1.914 1.086-1.086v2.172zm-4.914-9.5h2v4h-4v-2a2 2 0 0 1 2-2zm-2 8v-2h4v2zm6 12.382v-1.968l1.312 1.312zm.914-3.882 1.086-1.086v2.172z"/><path d="m24 40a1 1 0 0 0 1-1v-5a2 2 0 0 0 -2-2h-2a2 2 0 0 0 -2 2v5a1 1 0 0 0 2 0v-5h2v5a1 1 0 0 0 1 1z"/><path d="m12 32a1 1 0 0 0 -1 1v6a1 1 0 0 0 2 0v-1h2v1a1 1 0 0 0 2 0v-9h10v9a1 1 0 0 0 2 0v-1h4v1a1 1 0 0 0 2 0v-6a1 1 0 0 0 -1-1h-1v-7a1 1 0 0 0 -1-1h-3v-7a1 1 0 0 0 -1-1h-7v-3a1 1 0 0 0 -1-1h-1v-2a1 1 0 0 0 -2 0v2h-1a1 1 0 0 0 -1 1v19zm1 4v-2h2v2zm14-12h-2v-2h2zm-4 0h-2v-2h2zm-6-2h2v2h-2zm2-2h-2v-2h2zm-2 6h2v2h-2zm4 0h2v2h-2zm4 2v-2h2v2zm4 8v-2h4v2zm0-4v-2h2v2zm2-4h-2v-2h2zm-4-8h-2v-2h2zm-4 0h-2v-2h2zm-6-6h2v2h-2z"/></g></g></symbol><symbol id="curriculum" viewBox="0 0 512 512"><title>curriculum</title><polygon style="fill:#FF5F5C;" points="328,32 328,72 408,72 408,472 104,472 104,72 184,72 184,32 64,32 64,512 448,512 448,32 "/><g> <path style="fill:#34303D;" d="M336,112H176V32h40.808C220.52,13.768,236.68,0,256,0s35.48,13.768,39.192,32H336V112z M192,96h128 V48h-40v-8c0-13.232-10.768-24-24-24s-24,10.768-24,24v8h-40V96z"/> <rect x="248" y="32" style="fill:#34303D;" width="16" height="16"/> <polygon style="fill:#34303D;" points="416,480 96,480 96,64 160,64 160,80 112,80 112,464 400,464 400,80 352,80 352,64 416,64 "/> <rect x="208" y="64" style="fill:#34303D;" width="96" height="16"/> </g><path style="fill:#57DCF2;" d="M316.28,267.72C308.48,259.904,298.232,256,288,256h-0.016L256,288l-31.992-32H224 c-10.232,0-20.48,3.904-28.28,11.72C187.904,275.528,184,285.768,184,296v48h144v-48C328,285.768,324.096,275.528,316.28,267.72z"/><g> <path style="fill:#34303D;" d="M336,344h-16v-48c0-8.544-3.328-16.576-9.376-22.624C304.584,267.328,296.552,264,288,264h-64 c-8.552,0-16.592,3.328-22.616,9.368C195.328,279.424,192,287.456,192,296v48h-16v-48c0-12.824,5-24.872,14.064-33.944 C199.112,253,211.168,248,224,248h64c12.832,0,24.88,5,33.944,14.064C331.008,271.136,336,283.176,336,296V344z"/> <rect x="248" y="312" style="fill:#34303D;" width="16" height="16"/> <path style="fill:#34303D;" d="M256,232c-26.472,0-48-21.528-48-48s21.528-48,48-48s48,21.528,48,48S282.472,232,256,232z M256,152 c-17.648,0-32,14.352-32,32s14.352,32,32,32s32-14.352,32-32S273.648,152,256,152z"/> <rect x="136" y="360" style="fill:#34303D;" width="240" height="16"/> <rect x="136" y="392" style="fill:#34303D;" width="240" height="16"/> <rect x="136" y="424" style="fill:#34303D;" width="120" height="16"/> </g></symbol><symbol id="github" viewBox="0 0 24 24"><title>github</title><path d="m12 .5c-6.63 0-12 5.28-12 11.792 0 5.211 3.438 9.63 8.205 11.188.6.111.82-.254.82-.567 0-.28-.01-1.022-.015-2.005-3.338.711-4.042-1.582-4.042-1.582-.546-1.361-1.335-1.725-1.335-1.725-1.087-.731.084-.716.084-.716 1.205.082 1.838 1.215 1.838 1.215 1.07 1.803 2.809 1.282 3.495.981.108-.763.417-1.282.76-1.577-2.665-.295-5.466-1.309-5.466-5.827 0-1.287.465-2.339 1.235-3.164-.135-.298-.54-1.497.105-3.121 0 0 1.005-.316 3.3 1.209.96-.262 1.98-.392 3-.398 1.02.006 2.04.136 3 .398 2.28-1.525 3.285-1.209 3.285-1.209.645 1.624.24 2.823.12 3.121.765.825 1.23 1.877 1.23 3.164 0 4.53-2.805 5.527-5.475 5.817.42.354.81 1.077.81 2.182 0 1.578-.015 2.846-.015 3.229 0 .309.21.678.825.56 4.801-1.548 8.236-5.97 8.236-11.173 0-6.512-5.373-11.792-12-11.792z" fill="#212121"/></symbol><symbol id="house" viewBox="0 0 512 512"><title>house</title><rect x="382.933" y="73.6" style="fill:#F05540;" width="58.667" height="102.4"/><rect x="360.533" y="21.333" style="fill:#F3705A;" width="103.467" height="55.467"/><path style="fill:#FFD15C;" d="M44.8,276.267V512h418.133V276.267c-82.133-82.133-128-128-209.067-209.067l0,0 C172.8,149.333,126.933,195.2,44.8,276.267z"/><path style="fill:#F7B64C;" d="M464,276.267c-82.133-82.133-128-128-209.067-209.067c-41.6,40.533-73.6,72.533-105.6,104.533 s-64,64-104.533,104.533v48c82.133-82.133,128-128,209.067-209.067c82.133,82.133,128,128,209.067,209.067v6.4l0,0v-54.4H464z"/><path style="fill:#415A6B;" d="M216.533,512H90.667V388.267c0-35.2,28.8-62.933,62.933-62.933l0,0c35.2,0,62.933,28.8,62.933,62.933 V512z"/><rect x="253.867" y="325.333" style="fill:#344A5E;" width="164.267" height="144"/><g> <rect x="270.933" y="342.4" style="fill:#8AD7F8;" width="56.533" height="109.867"/> <rect x="344.533" y="342.4" style="fill:#8AD7F8;" width="56.533" height="109.867"/> </g><path style="fill:#F3705A;" d="M502.4,232.533L279.467,9.6c-12.8-12.8-35.2-12.8-48,0L9.6,232.533c-12.8,12.8-12.8,35.2,0,48 c12.8,12.8,35.2,12.8,48,0L256,82.133l198.4,198.4c12.8,12.8,35.2,12.8,48,0C515.2,266.667,515.2,245.333,502.4,232.533z"/></symbol><symbol id="email" viewBox="0 0 512.005 512.005"><title>email</title><path style="fill:#F1F2F2;" d="M437.336,202.671L256.002,320.005L74.669,202.671V21.338c-0.125-5.766,4.448-10.542,10.214-10.667 c0.151-0.003,0.302-0.003,0.453,0h341.333c5.766-0.125,10.542,4.448,10.667,10.214c0.003,0.151,0.003,0.302,0,0.453V202.671z"/><g> <path style="fill:#F6B445;" d="M74.669,202.671l-64-42.667l64-64V202.671z"/> <path style="fill:#F6B445;" d="M501.336,160.005l-64,42.667V96.005L501.336,160.005z"/> </g><path style="fill:#FED049;" d="M437.336,201.711l64-41.707v298.667c-0.02,11.314-4.505,22.162-12.48,30.187l-72.853-72.853 L298.669,298.671l-2.987-4.587L437.336,201.711z"/><path style="fill:#F6B445;" d="M416.002,416.005l72.853,72.853c-8.025,7.975-18.873,12.46-30.187,12.48H53.336 c-11.314-0.02-22.162-4.505-30.187-12.48l72.853-72.853l117.333-117.333l2.987-4.587l39.68,25.92l39.68-25.92l2.987,4.587 L416.002,416.005z"/><path style="fill:#FED049;" d="M216.322,294.085l-2.987,4.587L96.002,416.005l-72.853,72.853 c-7.975-8.025-12.46-18.873-12.48-30.187V160.005L216.322,294.085z"/><g> <path style="fill:#474C54;" d="M431.512,192.783L256.002,307.269L80.493,192.783c-5.004-3.109-11.581-1.572-14.689,3.432 c-3.013,4.85-1.672,11.212,3.041,14.434l131.595,85.888l-112,112c-4.237,4.093-4.355,10.845-0.262,15.083 c4.093,4.237,10.845,4.354,15.083,0.262c0.089-0.086,0.176-0.173,0.262-0.262l115.147-115.221l31.477,20.533 c3.545,2.316,8.124,2.316,11.669,0l31.52-20.533l115.147,115.2c4.237,4.093,10.99,3.976,15.083-0.261 c3.993-4.134,3.993-10.688,0-14.821l-112-112l131.595-85.835c4.863-3.325,6.111-9.962,2.786-14.825 c-3.222-4.713-9.584-6.054-14.434-3.041V192.783z"/> <path style="fill:#474C54;" d="M511.181,155.93c-0.533-1.296-1.316-2.474-2.304-3.467l-60.875-60.875V21.338 c0.244-11.538-8.911-21.089-20.449-21.333c-0.295-0.006-0.589-0.006-0.884,0H85.336C73.798-0.239,64.247,8.916,64.002,20.454 c-0.006,0.295-0.006,0.589,0,0.884v70.251L3.128,152.463c-0.988,0.993-1.771,2.171-2.304,3.467 c-0.536,1.292-0.815,2.676-0.821,4.075v298.667c-0.029,29.426,23.801,53.304,53.227,53.333c0.036,0,0.071,0,0.107,0h405.333 c29.426,0.029,53.304-23.801,53.333-53.227c0-0.036,0-0.071,0-0.107V160.005C511.996,158.606,511.717,157.222,511.181,155.93z M481.314,481.263c-6.012,6.001-14.151,9.382-22.645,9.408H53.336c-17.638,0.035-31.965-14.234-32-31.872c0-0.043,0-0.085,0-0.128 V164.421l42.667-42.667v27.584c0,5.891,4.776,10.667,10.667,10.667s10.667-4.776,10.667-10.667v-128h341.333v128 c0,5.891,4.776,10.667,10.667,10.667c5.891,0,10.667-4.776,10.667-10.667v-27.584l42.667,42.667v294.251 c-0.002,8.462-3.345,16.581-9.301,22.592H481.314z"/> <path style="fill:#474C54;" d="M138.669,74.671h234.667c5.891,0,10.667-4.776,10.667-10.667s-4.776-10.667-10.667-10.667H138.669 c-5.891,0-10.667,4.776-10.667,10.667S132.778,74.671,138.669,74.671z"/> <path style="fill:#474C54;" d="M138.669,128.005h234.667c5.891,0,10.667-4.776,10.667-10.667c0-5.891-4.776-10.667-10.667-10.667 H138.669c-5.891,0-10.667,4.776-10.667,10.667C128.002,123.229,132.778,128.005,138.669,128.005z"/> <path style="fill:#474C54;" d="M373.336,160.005h-21.333c-5.891,0-10.667,4.776-10.667,10.667s4.776,10.667,10.667,10.667h21.333 c5.891,0,10.667-4.776,10.667-10.667S379.227,160.005,373.336,160.005z"/> <path style="fill:#474C54;" d="M288.002,160.005c-5.891,0-10.667,4.776-10.667,10.667s4.776,10.667,10.667,10.667h21.333 c5.891,0,10.667-4.776,10.667-10.667s-4.776-10.667-10.667-10.667H288.002z"/> </g></symbol><symbol id="clouds" viewBox="0 0 511.998 511.998"><title>clouds</title><path style="fill:#9FDEF7;" d="M155.968,187.07h38.254c14.29-26.216,38.712-46.094,68.024-54.357 c-5.897-14.318-19.979-24.397-36.419-24.397c-4.11,0-8.069,0.633-11.79,1.798c0.02-0.598,0.046-1.195,0.046-1.798 c0-29.244-23.714-52.956-52.96-52.956c-25.223,0-46.309,17.632-51.642,41.239c-3.168-1.056-6.548-1.634-10.069-1.634 c-10.834,0-20.398,5.424-26.133,13.703c-3.2-0.825-6.56-1.272-10.019-1.272c-22,0-39.834,17.835-39.834,39.836 c0,21.997,17.835,39.836,39.834,39.836h63.687"/><path style="fill:#BEEAFC;" d="M373.536,162.958c-20.468-21.893-49.607-35.578-81.941-35.578c-53.408,0-98.066,37.345-109.362,87.34 c-6.704-2.236-13.865-3.466-21.318-3.466c-22.947,0-43.196,11.49-55.341,29.022c-6.779-1.751-13.888-2.692-21.216-2.692 C37.768,237.584,0,275.352,0,321.942c0,46.588,37.768,84.361,84.358,84.361h93.011c0.196-28.675,23.489-51.858,52.206-51.858 c5.446,0,10.697,0.835,15.633,2.382c-0.023-0.79-0.059-1.582-0.059-2.382c0-38.787,31.442-70.23,70.228-70.23 c33.443,0,61.41,23.387,68.483,54.691c4.197-1.401,8.678-2.17,13.346-2.17c14.368,0,27.051,7.194,34.655,18.175 c4.245-1.098,8.696-1.688,13.284-1.688c19.231,0,36.057,10.279,45.295,25.637c13.396-14.793,21.557-34.414,21.557-55.94 c0-46.056-37.332-83.384-83.384-83.384c-8.696,0-17.08,1.333-24.963,3.803c0.041-1.263,0.096-2.529,0.096-3.803 c0-18.832-4.641-36.579-12.845-52.163"/><path style="fill:#AEE4FF;" d="M89.442,237.74c-1.682-0.102-3.376-0.157-5.084-0.157C37.768,237.582,0,275.351,0,321.941 c0,46.588,37.768,84.361,84.358,84.361h93.011c0.061-8.998,2.4-17.454,6.464-24.823C137.844,346.086,103.961,295.755,89.442,237.74z "/><path style="fill:#83D4ED;" d="M81.614,174.026c0-27.362,4.208-53.738,11.999-78.528c-8.402,1.551-15.646,6.407-20.333,13.171 c-3.2-0.825-6.56-1.272-10.019-1.272c-22,0-39.834,17.835-39.834,39.836c0,21.997,17.835,39.836,39.834,39.836h18.678 C81.727,182.747,81.614,178.4,81.614,174.026z"/><path style="fill:#E4F2F9;" d="M445.146,350.991c-4.588,0-9.041,0.588-13.284,1.688c-7.604-10.982-20.287-18.175-34.655-18.175 c-4.668,0-9.149,0.769-13.346,2.17c-7.074-31.305-35.04-54.691-68.483-54.691c-38.786,0-70.228,31.443-70.228,70.23 c0,0.8,0.035,1.592,0.059,2.382c-4.936-1.547-10.187-2.382-15.633-2.382c-28.835,0-52.212,23.373-52.212,52.216 c0,28.835,23.378,52.21,52.212,52.21h156.329h29.013h30.23c29.175,0,52.827-23.651,52.827-52.824 C497.973,374.64,474.321,350.991,445.146,350.991z"/><path style="fill:#D7EDF9;" d="M285.258,337.525c0-18.847,4-36.758,11.185-52.941c-29.585,8.267-51.295,35.403-51.295,67.627 c0,0.8,0.035,1.592,0.059,2.382c-4.936-1.547-10.187-2.382-15.633-2.382c-28.835,0-52.212,23.373-52.212,52.216 c0,28.835,23.378,52.21,52.212,52.21h132.677C316.86,436.184,285.258,390.545,285.258,337.525z"/></symbol><symbol id="toolbox" viewBox="0 0 512 512"><title>toolbox</title><path d="m50.076 266.4c137.283 9.506 274.566 9.506 411.849 0 13.286-76.035 14.883-152.07 4.791-228.105-2.413-18.179-17.372-32.067-35.678-33.144-116.691-6.868-233.383-6.868-350.074 0-18.308 1.078-33.267 14.966-35.679 33.145-10.092 76.034-8.495 152.069 4.791 228.104z" fill="#dd6938"/><path d="m256 257.047c-63.617 0-128.074-2.092-191.799-6.22-10.966-69.887-11.837-140.591-2.577-210.363 1.369-10.315 9.909-18.246 20.307-18.858 57.753-3.399 116.317-5.123 174.069-5.123s116.316 1.723 174.069 5.123c10.397.612 18.938 8.543 20.307 18.858 9.261 69.772 8.389 140.476-2.577 210.363-63.725 4.129-128.182 6.22-191.799 6.22z" fill="#544f57"/><path d="m476.648 471.893c-2.524 19.037-18.193 33.583-37.354 34.706-122.199 7.201-244.387 7.201-366.586 0-19.171-1.123-34.83-15.669-37.364-34.706-7.798-58.812-8.932-117.625-3.379-176.437 1.968-20.799 4.759-41.609 8.396-62.418 3.06-.216 6.13-.422 9.189-.618 137.631-9.138 275.271-9.138 412.892 0 3.06.196 6.129.402 9.189.618 3.636 20.809 6.439 41.609 8.396 62.418 5.563 58.812 4.43 117.625-3.379 176.437z" fill="#e27d47"/><path d="m101.908 508.179c-9.735-.474-19.46-.999-29.195-1.576-19.171-1.123-34.84-15.669-37.364-34.706-10.569-79.622-8.89-159.233 5.017-238.855 16.72-1.154 33.439-2.184 50.159-3.06-10.157 82.496-11.27 164.992-3.317 247.477 1.267 13.166 6.86 24.291 14.7 30.72z" fill="#dd6938"/><path d="m480.027 295.456h-448.062c1.968-20.799 4.759-41.609 8.396-62.418 3.06-.216 6.13-.422 9.189-.618h412.892c3.06.196 6.129.402 9.189.618 3.637 20.809 6.439 41.609 8.396 62.418z" fill="#dd6938"/><path d="m441.942 140.817c-.124 2.143-1.061 4.152-2.637 5.614-18.801 17.389-47.779 29.525-47.779 29.525v48.927h-64.746v-48.927s-28.979-12.135-47.769-29.525c-1.576-1.463-2.514-3.472-2.637-5.614-.742-12.475-1.638-57.844 20.47-95.136 0 0 7.294-9.715 29.937-9.715 0 0-8.087 40.568 0 65.601 0 0 16.194 7.881 32.378 7.881s32.368-7.881 32.368-7.881c8.087-25.033 0-65.601 0-65.601 22.653 0 29.937 9.715 29.937 9.715 22.105 37.292 21.209 82.661 20.478 95.136z" fill="#c3bec6"/><path d="m344.271 167.993v56.89h-17.492v-48.927s-28.979-12.135-47.779-29.535c-1.566-1.453-2.503-3.461-2.627-5.594-.742-12.475-1.638-57.844 20.47-95.146 0 0 7.294-9.715 29.937-9.715 0 0-33.264 2.833-30.998 92.602.072 2.905 1.329 5.666 3.472 7.613 6.346 5.759 21.077 17.812 38.549 23.179 3.821 1.165 6.468 4.636 6.468 8.633z" fill="#b4acb7"/><path d="m190.931 112.786-16.709 19.893c-2.957 3.523-4.584 7.984-4.584 12.589v74.477h-41.093v-74.477c0-4.605-1.628-9.066-4.584-12.589l-16.709-19.893c-4.461-5.316-5.779-12.599-3.451-19.141l16.143-45.41c2.771-7.798 10.157-13.011 18.44-13.011h21.417c8.283 0 15.669 5.213 18.45 13.011l16.132 45.41c2.327 6.542 1.019 13.826-3.452 19.141z" fill="#f9f6f9"/><path d="m143.687 145.268v74.477h-15.143v-74.477c0-4.605-1.617-9.066-4.584-12.589l-16.709-19.893c-4.461-5.316-5.779-12.599-3.451-19.141l16.143-45.41c2.771-7.798 10.157-13.011 18.44-13.011h4.595c-4.718 0-8.932 5.213-10.508 13.011l-9.21 45.41c-1.329 6.542-.577 13.825 1.968 19.141-.001 0 18.459 27.877 18.459 32.482z" fill="#e2dfe2"/><path d="m294.531 410.975h-99.671c-25.044 0-45.419-20.375-45.419-45.418v-34.847c0-10.241 8.302-18.543 18.543-18.543s18.543 8.302 18.543 18.543v34.846c0 4.595 3.738 8.332 8.333 8.332h99.671c4.595 0 8.332-3.738 8.332-8.332v-34.846c0-10.241 8.302-18.543 18.543-18.543s18.543 8.302 18.543 18.543v34.846c0 25.044-20.375 45.419-45.418 45.419z" fill="#dd6938"/><path d="m305.836 410.975h-99.671c-25.044 0-45.419-20.375-45.419-45.418v-34.847c0-10.241 8.302-18.543 18.543-18.543s18.543 8.302 18.543 18.543v34.846c0 4.595 3.738 8.332 8.333 8.332h99.671c4.595 0 8.332-3.738 8.332-8.332v-34.846c0-10.241 8.302-18.543 18.543-18.543s18.543 8.302 18.543 18.543v34.846c0 25.044-20.374 45.419-45.418 45.419z" fill="#665e66"/><g fill="#544f57"><path d="m329.698 365.557v-34.847c0-7.464 4.421-13.882 10.778-16.822-2.365-1.094-4.989-1.721-7.765-1.721-10.241 0-18.543 8.302-18.543 18.543v34.846c0 4.595-3.738 8.332-8.332 8.332h15.53c4.594.001 8.332-3.737 8.332-8.331z"/><path d="m176.276 365.557v-34.847c0-7.464 4.421-13.882 10.778-16.822-2.365-1.094-4.989-1.721-7.765-1.721-10.241 0-18.543 8.302-18.543 18.543v34.846c0 25.044 20.375 45.418 45.419 45.418h15.53c-25.044.001-45.419-20.374-45.419-45.417z"/></g><path d="m477.755 205.015h-443.51c-11.102 0-20.102 9-20.102 20.102v22.829c0 11.102 9 20.102 20.102 20.102h443.509c11.102 0 20.102-9 20.102-20.102v-22.829c.001-11.102-8.999-20.102-20.101-20.102z" fill="#ffef4a"/><path d="m104.128 268.056h-69.886c-11.105 0-20.099-9.004-20.099-20.109v-22.828c0-11.105 8.993-20.099 20.099-20.099h69.887c-11.105 0-20.109 8.993-20.109 20.099v22.828c0 11.105 9.003 20.109 20.108 20.109z" fill="#ffd321"/></symbol><symbol id="programming" viewBox="0 0 128 128"><title>programming</title><path d="m119.337 13.151h-52.337v-5.901a1 1 0 0 0 -2 0v5.9h-52.337a5.006 5.006 0 0 0 -5 5v95.7a5.006 5.006 0 0 0 5 5h52.337v5.9a1 1 0 0 0 2 0v-5.9h52.337a5.006 5.006 0 0 0 5-5v-95.7a5.006 5.006 0 0 0 -5-4.999z" fill="#e6e7e8"/><path d="m4.663 26.163h114.674a0 0 0 0 1 0 0v83.687a4 4 0 0 1 -4 4h-106.674a4 4 0 0 1 -4-4v-83.687a0 0 0 0 1 0 0z" fill="#d4fbff"/><path d="m62 113.849h53.337a4 4 0 0 0 4-4v-83.686h-57.337z" fill="#ffd7e5"/><path d="m4.663 14.151v12.012h114.674v-12.012a4 4 0 0 0 -4-4h-106.674a4 4 0 0 0 -4 4z" fill="#0089ef"/><path d="m115.337 10.151h-53.337v16.012h57.337v-12.012a4 4 0 0 0 -4-4z" fill="#fa759e"/><path d="m115.337 10.151h-106.674a4 4 0 0 0 -4 4v3a4 4 0 0 1 4-4h106.674a4 4 0 0 1 4 4v-3a4 4 0 0 0 -4-4z" fill="#fff"/><circle cx="40.281" cy="18.579" fill="#fff" r="3.257"/><circle cx="28.45" cy="18.579" fill="#d4fbff" r="3.257"/><circle cx="16.618" cy="18.579" fill="#fa759e" r="3.257"/><path d="m42.821 60.5h-6.809a1 1 0 0 1 0-2h6.809a1 1 0 0 1 0 2z" fill="#fa759e"/><path d="m30.012 60.5h-16.833a1 1 0 0 1 0-2h16.833a1 1 0 0 1 0 2z" fill="#fa759e"/><path d="m42.821 81.5h-10.309a1 1 0 0 1 0-2h10.309a1 1 0 0 1 0 2z" fill="#fa759e"/><path d="m28.512 81.5h-15.333a1 1 0 0 1 0-2h15.333a1 1 0 0 1 0 2z" fill="#fa759e"/><path d="m42.821 102.5h-10.309a1 1 0 0 1 0-2h10.309a1 1 0 0 1 0 2z" fill="#fa759e"/><path d="m28.512 102.5h-15.333a1 1 0 0 1 0-2h15.333a1 1 0 0 1 0 2z" fill="#fa759e"/><rect fill="#6dc9f7" height="41.953" rx="2" transform="matrix(0 1 -1 0 135.168 -44.832)" width="19.6" x="80.2" y="24.192"/><rect fill="#d4fbff" height="41.953" rx="2" transform="matrix(0 1 -1 0 164.802 -15.198)" width="28.817" x="75.591" y="53.825"/><g fill="#3a2c60"><path d="m22.423 50.511a1.251 1.251 0 0 0 .924-.372 1.282 1.282 0 0 0 .372-.948 1.1 1.1 0 0 0 -.18-.612 1.132 1.132 0 0 0 -.516-.42l-7.848-3.144 7.848-3.144a1.062 1.062 0 0 0 .7-1.032 1.268 1.268 0 0 0 -.36-.936 1.236 1.236 0 0 0 -.912-.36 1.852 1.852 0 0 0 -.7.145l-8.472 3.456a1.965 1.965 0 0 0 -.936.743 1.991 1.991 0 0 0 -.336 1.128 1.97 1.97 0 0 0 .336 1.14 2.15 2.15 0 0 0 .936.756l8.472 3.456a1.817 1.817 0 0 0 .672.144z"/><path d="m26.263 53.7a1.448 1.448 0 0 0 .828-.252 1.306 1.306 0 0 0 .515-.756l5.521-17.279a1.926 1.926 0 0 0 .071-.5 1.2 1.2 0 0 0 -.431-.948 1.5 1.5 0 0 0 -1.008-.372 1.394 1.394 0 0 0 -1.345 1.007l-5.5 17.28a1.875 1.875 0 0 0 -.072.5 1.2 1.2 0 0 0 .431.949 1.472 1.472 0 0 0 .99.371z"/><path d="m34.531 48.579a1.1 1.1 0 0 0 -.18.612 1.282 1.282 0 0 0 .372.948 1.248 1.248 0 0 0 .923.372 1.813 1.813 0 0 0 .672-.144l8.473-3.456a2.156 2.156 0 0 0 .936-.756 1.969 1.969 0 0 0 .335-1.14 1.99 1.99 0 0 0 -.335-1.128 1.97 1.97 0 0 0 -.936-.743l-8.473-3.456a1.843 1.843 0 0 0 -.7-.145 1.236 1.236 0 0 0 -.912.36 1.268 1.268 0 0 0 -.36.936 1.062 1.062 0 0 0 .7 1.032l7.854 3.144-7.848 3.144a1.122 1.122 0 0 0 -.521.42z"/><path d="m119.337 41.979a1 1 0 0 0 -1 1v8.521a1 1 0 0 0 2 0v-8.521a1 1 0 0 0 -1-1z"/><path d="m115.337 9.151h-52.337v-5.901a1 1 0 0 0 -2 0v5.9h-52.337a5.006 5.006 0 0 0 -5 5v95.7a5.006 5.006 0 0 0 5 5h52.337v5.9a1 1 0 0 0 2 0v-5.9h52.337a5.006 5.006 0 0 0 5-5v-54.183a1 1 0 0 0 -2 0v54.182a3 3 0 0 1 -3 3h-52.337v-85.686h55.337v11.38a1 1 0 0 0 2 0v-24.392a5.006 5.006 0 0 0 -5-5zm-109.674 5a3 3 0 0 1 3-3h52.337v14.012h-55.337zm3 98.7a3 3 0 0 1 -3-3v-82.688h55.337v38.337h-9.489a1 1 0 1 0 0 2h9.489v5h-40.821a1 1 0 0 0 0 2h40.821v12h-19.489a1 1 0 1 0 0 2h19.489v5h-13.4a1 1 0 1 0 0 2h13.4v17.349zm54.337-87.688v-14.012h52.337a3 3 0 0 1 3 3v11.012z"/><path d="m45.345 65.5h-25.166a1 1 0 0 0 0 2h25.166a1 1 0 0 0 0-2z"/><path d="m20.179 88.5h15.166a1 1 0 0 0 0-2h-15.166a1 1 0 0 0 0 2z"/><path d="m42.512 93.5h-22.333a1 1 0 0 0 0 2h22.333a1 1 0 0 0 0-2z"/><path d="m111.977 37.368a3 3 0 0 0 -3-3h-37.953a3 3 0 0 0 -3 3v15.6a3 3 0 0 0 3 3h37.953a3 3 0 0 0 3-3zm-2 15.6a1 1 0 0 1 -1 1h-37.953a1 1 0 0 1 -1-1v-15.6a1 1 0 0 1 1-1h37.953a1 1 0 0 1 1 1z"/><path d="m111.977 87.21v-24.817a3 3 0 0 0 -3-3h-37.953a3 3 0 0 0 -3 3v24.817a3 3 0 0 0 3 3h37.953a3 3 0 0 0 3-3zm-40.953-25.817h37.953a1 1 0 0 1 1 1v15.326l-5.394-3.865a1 1 0 0 0 -1.213.036l-5.565 4.51-14.044-10.371a1 1 0 0 0 -1.2.011l-12.535 9.6v-15.247a1 1 0 0 1 .998-1zm37.953 26.817h-37.953a1 1 0 0 1 -1-1v-7.05l13.153-10.075 14.062 10.386a1 1 0 0 0 1.224-.028l5.575-4.519 5.939 4.256v7.03a1 1 0 0 1 -1 1z"/><path d="m97.25 72.583a4.5 4.5 0 1 0 -4.5-4.5 4.5 4.5 0 0 0 4.5 4.5zm0-7a2.5 2.5 0 1 1 -2.5 2.5 2.5 2.5 0 0 1 2.5-2.5z"/><path d="m109.291 95.2h-38.581a1 1 0 1 0 0 2h38.581a1 1 0 0 0 0-2z"/><path d="m109.291 103.632h-38.581a1 1 0 1 0 0 2h38.581a1 1 0 0 0 0-2z"/></g></symbol><symbol id="server" viewBox="0 0 508.324 508.324"><title>server</title><g><g><path d="m439.278 100.926h-370.231c-3.348 0-6.062-2.714-6.062-6.062v-81.302c0-3.348 2.714-6.062 6.062-6.062h370.231c3.348 0 6.062 2.714 6.062 6.062v81.302c-.001 3.348-2.715 6.062-6.062 6.062z" fill="#92e0c4"/></g></g><g><g><path d="m439.278 234.182h-370.231c-3.348 0-6.062-2.714-6.062-6.062v-81.302c0-3.348 2.714-6.062 6.062-6.062h370.231c3.348 0 6.062 2.714 6.062 6.062v81.302c-.001 3.348-2.715 6.062-6.062 6.062z" fill="#92e0c4"/></g></g><g><g><path d="m439.278 367.438h-370.231c-3.348 0-6.062-2.714-6.062-6.062v-81.302c0-3.348 2.714-6.062 6.062-6.062h370.231c3.348 0 6.062 2.714 6.062 6.062v81.302c-.001 3.348-2.715 6.062-6.062 6.062z" fill="#92e0c4"/></g></g><g><g><path d="m93.505 100.926h311.497v39.83h-311.497z" fill="#67b59f"/></g></g><g><g><path d="m93.505 234.117h311.497v39.83h-311.497z" fill="#67b59f"/></g></g><g><g><path d="m439.278 500.824h-370.231c-3.348 0-6.062-2.714-6.062-6.062v-81.302c0-3.348 2.714-6.062 6.062-6.062h370.231c3.348 0 6.062 2.714 6.062 6.062v81.302c-.001 3.348-2.715 6.062-6.062 6.062z" fill="#92e0c4"/></g></g><g><g><path d="m439.278 7.5h-30c3.348 0 6.062 2.714 6.062 6.061v81.303c0 3.348-2.714 6.062-6.062 6.062h30c3.348 0 6.062-2.714 6.062-6.062v-81.303c-.001-3.347-2.715-6.061-6.062-6.061z" fill="#77d1b3"/></g></g><g><g><path d="m439.278 140.756h-30c3.348 0 6.062 2.714 6.062 6.062v81.302c0 3.348-2.714 6.061-6.062 6.061h30c3.348 0 6.062-2.714 6.062-6.061v-81.302c-.001-3.348-2.715-6.062-6.062-6.062z" fill="#77d1b3"/></g></g><g><g><path d="m439.278 274.012h-30c3.348 0 6.062 2.714 6.062 6.061v81.302c0 3.348-2.714 6.062-6.062 6.062h30c3.348 0 6.062-2.714 6.062-6.062v-81.302c-.001-3.347-2.715-6.061-6.062-6.061z" fill="#77d1b3"/></g></g><g><g><path d="m439.278 407.398h-30c3.348 0 6.062 2.714 6.062 6.062v81.303c0 3.348-2.714 6.061-6.062 6.061h30c3.348 0 6.062-2.714 6.062-6.061v-81.303c-.001-3.348-2.715-6.062-6.062-6.062z" fill="#77d1b3"/></g></g><g><g><path d="m93.505 367.503h311.497v39.83h-311.497z" fill="#67b59f"/></g></g><g><g><path d="m159.571 320.358c0 9.125-7.397 16.522-16.522 16.522s-16.522-7.397-16.522-16.522 7.397-16.522 16.522-16.522c9.124 0 16.522 7.397 16.522 16.522zm-16.522 117.05c-9.125 0-16.522 7.397-16.522 16.522s7.397 16.522 16.522 16.522 16.522-7.397 16.522-16.522-7.398-16.522-16.522-16.522z" fill="#e6989e"/></g></g><g><g><path d="m227.447 320.358c0 9.125-7.397 16.522-16.522 16.522s-16.522-7.397-16.522-16.522 7.397-16.522 16.522-16.522 16.522 7.397 16.522 16.522zm-16.522 117.05c-9.125 0-16.522 7.397-16.522 16.522s7.397 16.522 16.522 16.522 16.522-7.397 16.522-16.522-7.397-16.522-16.522-16.522z" fill="#f8e883"/></g></g><g><g><path d="m155.151 39.451c13.471 17.685-6.521 37.677-24.206 24.206-13.468-17.685 6.521-37.674 24.206-24.206zm.001 136.573c-17.685-13.469-37.675 6.521-24.207 24.206 17.685 13.47 37.677-6.521 24.207-24.206z" fill="#f8e883"/></g></g><g><g><path d="m227.447 52.055c0 9.125-7.397 16.522-16.522 16.522s-16.522-7.397-16.522-16.522 7.397-16.522 16.522-16.522 16.522 7.397 16.522 16.522zm-16.522 120.05c-9.125 0-16.522 7.397-16.522 16.522s7.397 16.522 16.522 16.522 16.522-7.397 16.522-16.522-7.397-16.522-16.522-16.522z" fill="#e6989e"/></g></g><g><circle cx="309.856" cy="54.213" r="7.5"/><circle cx="351.808" cy="54.213" r="7.5"/><circle cx="393.76" cy="54.213" r="7.5"/><circle cx="309.856" cy="188.285" r="7.5"/><circle cx="351.808" cy="188.285" r="7.5"/><circle cx="393.76" cy="188.285" r="7.5"/><circle cx="309.856" cy="322.357" r="7.5"/><circle cx="351.808" cy="322.357" r="7.5"/><circle cx="393.76" cy="322.357" r="7.5"/><circle cx="309.856" cy="456.43" r="7.5"/><circle cx="351.808" cy="456.43" r="7.5"/><circle cx="393.76" cy="456.43" r="7.5"/><path d="m439.278 108.426c7.478 0 13.562-6.084 13.562-13.562v-81.303c-.001-7.478-6.085-13.561-13.562-13.561h-124.938c-4.143 0-7.5 3.358-7.5 7.5s3.357 7.5 7.5 7.5h123.499v78.426h-219.414v-18.559c3.476-1.129 6.72-3.061 9.486-5.827 8.924-8.924 9.369-22.754 1.083-33.633-.408-.536-.886-1.014-1.422-1.422-10.879-8.285-24.709-7.841-33.634 1.083-8.924 8.924-9.37 22.754-1.083 33.634.408.536.886 1.014 1.422 1.422 2.89 2.201 5.99 3.763 9.148 4.736v18.565h-52.876v-18.553c9.583-3.158 16.522-12.19 16.522-22.817 0-13.246-10.776-24.022-24.022-24.022s-24.022 10.776-24.022 24.022c0 10.627 6.939 19.659 16.522 22.817v18.554h-65.064v-78.426h213.855c4.143 0 7.5-3.358 7.5-7.5s-3.357-7.5-7.5-7.5h-215.293c-7.478 0-13.562 6.083-13.562 13.561v81.302c0 7.478 6.084 13.562 13.562 13.562h16.958v24.83h-16.958c-7.478 0-13.562 6.084-13.562 13.562v81.302c0 7.478 6.084 13.561 13.562 13.561h16.958v24.831h-16.958c-7.478 0-13.562 6.083-13.562 13.561v81.302c0 7.478 6.084 13.562 13.562 13.562h16.958v24.96h-16.958c-7.478 0-13.562 6.084-13.562 13.562v81.302c0 7.478 6.084 13.561 13.562 13.561h169.25c4.142 0 7.5-3.358 7.5-7.5s-3.358-7.5-7.5-7.5h-167.812v-78.426h65.064v16.215c-9.583 3.158-16.522 12.19-16.522 22.817 0 13.246 10.776 24.022 24.022 24.022s24.022-10.776 24.022-24.022c0-10.627-6.939-19.658-16.522-22.816v-16.215h52.876v16.215c-9.583 3.158-16.522 12.19-16.522 22.817 0 13.246 10.776 24.022 24.022 24.022s24.022-10.776 24.022-24.022c0-10.627-6.939-19.658-16.522-22.816v-16.215h219.414v78.426h-169.543c-4.143 0-7.5 3.358-7.5 7.5s3.357 7.5 7.5 7.5h170.981c7.478 0 13.562-6.083 13.562-13.561v-81.302c0-7.478-6.084-13.562-13.562-13.562h-26.776v-24.96h26.776c7.478 0 13.562-6.084 13.562-13.562v-81.302c0-7.478-6.084-13.561-13.562-13.561h-26.776v-24.831h26.776c7.478 0 13.562-6.083 13.562-13.561v-81.302c0-7.478-6.084-13.562-13.562-13.562h-26.776v-24.83h26.777zm-234.733-62.751c2.713-2.714 7.526-4.141 13.112-.353 3.788 5.585 2.361 10.398-.352 13.111-1.5 1.5-3.643 2.601-6.202 2.652-.06-.001-.118-.009-.178-.009-.051 0-.101.007-.152.008-1.988-.032-4.214-.693-6.581-2.298-3.787-5.585-2.36-10.397.353-13.111zm-61.496-2.642c4.975 0 9.022 4.047 9.022 9.022s-4.047 9.022-9.022 9.022-9.022-4.047-9.022-9.022c-.001-4.975 4.047-9.022 9.022-9.022zm0 419.92c-4.975 0-9.022-4.047-9.022-9.022s4.047-9.022 9.022-9.022 9.022 4.047 9.022 9.022c0 4.974-4.048 9.022-9.022 9.022zm67.876 0c-4.975 0-9.022-4.047-9.022-9.022s4.047-9.022 9.022-9.022 9.022 4.047 9.022 9.022c0 4.974-4.047 9.022-9.022 9.022zm-7.5-354.527v24.83h-52.876v-24.83zm-102.42 0h34.544v24.83h-34.544zm0 291.472v-24.96h34.544v24.96zm49.544 0v-24.96h52.876v24.96zm246.952 0h-179.076v-24.96h179.076zm40.338-39.96h-219.414v-16.764c9.583-3.158 16.522-12.189 16.522-22.816 0-13.246-10.776-24.023-24.022-24.023s-24.022 10.776-24.022 24.023c0 10.627 6.939 19.659 16.522 22.817v16.763h-52.876v-16.764c9.583-3.158 16.522-12.189 16.522-22.816 0-13.246-10.776-24.023-24.022-24.023s-24.022 10.776-24.022 24.023c0 10.627 6.939 19.659 16.522 22.817v16.763h-65.064v-78.426h367.354zm-226.914-30.558c-4.975 0-9.022-4.047-9.022-9.022s4.047-9.023 9.022-9.023 9.022 4.047 9.022 9.023c0 4.974-4.047 9.022-9.022 9.022zm-67.876 0c-4.975 0-9.022-4.047-9.022-9.022s4.047-9.023 9.022-9.023 9.022 4.047 9.022 9.023c0 4.974-4.048 9.022-9.022 9.022zm254.452-62.868h-296.496v-24.831h296.497v24.831zm40.338-39.83h-367.354v-78.426h65.064v17.555c-9.583 3.158-16.522 12.189-16.522 22.816 0 13.246 10.776 24.022 24.022 24.022s24.022-10.776 24.022-24.022c0-10.627-6.939-19.658-16.522-22.816v-17.555h52.876v17.539c-3.477 1.129-6.718 3.078-9.486 5.845-8.924 8.924-9.37 22.755-1.083 33.634.408.536.886 1.014 1.422 1.422 5.199 3.959 11.069 5.925 16.758 5.925 6.216 0 12.215-2.348 16.875-7.008 8.924-8.924 9.37-22.754 1.084-33.633-.408-.536-.887-1.014-1.422-1.422-2.89-2.201-5.989-3.767-9.148-4.741v-17.561h219.414zm-294.79-47.077c4.975 0 9.022 4.047 9.022 9.022s-4.047 9.022-9.022 9.022-9.022-4.047-9.022-9.022c-.001-4.975 4.047-9.022 9.022-9.022zm61.496 2.642c1.499-1.499 3.64-2.6 6.196-2.651.062.001.122.009.184.009.053 0 .105-.007.158-.008 1.987.032 4.21.694 6.574 2.298 3.788 5.585 2.361 10.398-.352 13.111-2.714 2.714-7.528 4.139-13.111.353-3.789-5.586-2.362-10.398.351-13.112zm192.956-48.991h-179.076v-24.83h179.076z"/></g></symbol><symbol id="html-5" viewBox="0 0 512 512"><title>html-5</title><polygon style="fill:#FF5722;" points="32,0 72.8,460.8 256,512 439.136,460.832 480,0 "/><polygon style="fill:#FAFAFA;" points="391.52,150.688 256,150.688 176.8,150.688 181.92,208.576 256,208.576 386.4,208.576 371.008,382.144 256,414.24 255.904,414.272 140.96,382.144 132.928,291.36 189.248,291.36 193.44,338.464 255.936,355.456 256,355.424 256,355.424 318.56,338.432 325.088,265.12 256,265.12 256,265.12 130.624,265.12 115.456,94.208 256,94.208 396.512,94.208 "/></symbol><symbol id="css-3" viewBox="0 0 512 512"><title>css-3</title><polygon style="fill:#2196F3;" points="32,0 72.8,460.8 256,512 439.136,460.832 480,0 "/><polygon style="fill:#FAFAFA;" points="392.768,150.688 387.616,208.576 372.064,382.112 256,414.208 255.904,414.24 139.904,382.112 131.808,291.36 188.64,291.36 192.864,338.432 255.936,355.456 255.968,355.424 319.136,338.4 327.744,259.968 129.088,260.512 123.456,206.88 332.512,204.416 336.736,147.008 117.856,147.616 114.176,94.208 256,94.208 397.824,94.208 "/></symbol><symbol id="js" viewBox="0 0 512 512"><title>js</title><g transform="translate(1 1)"> <polygon style="fill:#FFE100;" points="7.501,502.498 502.498,502.498 502.498,7.501 7.501,7.501 "/> <polygon style="fill:#FFA800;" points="476.895,502.498 502.498,502.498 502.498,7.501 476.895,7.501 "/> <polygon style="fill:#FFFFFF;" points="7.501,502.498 33.104,502.498 33.104,7.501 7.501,7.501 "/> <path d="M502.499,511H7.501C2.806,511-1,507.194-1,502.499V7.501C-1,2.806,2.806-1,7.501-1h494.998C507.194-1,511,2.806,511,7.501 v494.998C511,507.194,507.194,511,502.499,511z M16.002,493.998h477.996V16.002H16.002V493.998z"/> <path d="M391.551,468.328c-42.334,0-76.777-34.442-76.777-76.777c0-4.695,3.807-8.501,8.501-8.501c4.695,0,8.501,3.806,8.501,8.501 c0,32.959,26.815,59.775,59.775,59.775s59.775-26.815,59.775-59.775s-26.815-59.775-59.775-59.775 c-42.334,0-76.777-34.442-76.777-76.777s34.442-76.776,76.777-76.776s76.777,34.442,76.777,76.777c0,4.695-3.806,8.501-8.501,8.501 c-4.695,0-8.501-3.806-8.501-8.501c0-32.96-26.815-59.775-59.775-59.775S331.776,222.04,331.776,255 c0,32.959,26.815,59.775,59.775,59.775c42.334,0,76.777,34.442,76.777,76.777S433.885,468.328,391.551,468.328z"/> <path d="M212.328,468.328c-42.334,0-76.777-34.442-76.777-76.777c0-4.695,3.806-8.501,8.501-8.501s8.501,3.806,8.501,8.501 c0,32.959,26.814,59.775,59.775,59.775s59.775-26.815,59.775-59.775V186.724c0-4.695,3.806-8.501,8.501-8.501 s8.501,3.806,8.501,8.501v204.826C289.103,433.885,254.662,468.328,212.328,468.328z"/> </g></symbol><symbol id="envelope" viewBox="0 0 512 512"><title>envelope</title><path d="M469.333,64H42.667C19.135,64,0,83.135,0,106.667v298.667C0,428.865,19.135,448,42.667,448h426.667 C492.865,448,512,428.865,512,405.333V106.667C512,83.135,492.865,64,469.333,64z M42.667,85.333h426.667 c1.572,0,2.957,0.573,4.432,0.897c-36.939,33.807-159.423,145.859-202.286,184.478c-3.354,3.021-8.76,6.625-15.479,6.625 s-12.125-3.604-15.49-6.635C197.652,232.085,75.161,120.027,38.228,86.232C39.706,85.908,41.094,85.333,42.667,85.333z M21.333,405.333V106.667c0-2.09,0.63-3.986,1.194-5.896c28.272,25.876,113.736,104.06,169.152,154.453 C136.443,302.671,50.957,383.719,22.46,410.893C21.957,409.079,21.333,407.305,21.333,405.333z M469.333,426.667H42.667 c-1.704,0-3.219-0.594-4.81-0.974c29.447-28.072,115.477-109.586,169.742-156.009c7.074,6.417,13.536,12.268,18.63,16.858 c8.792,7.938,19.083,12.125,29.771,12.125s20.979-4.188,29.76-12.115c5.096-4.592,11.563-10.448,18.641-16.868 c54.268,46.418,140.286,127.926,169.742,156.009C472.552,426.073,471.039,426.667,469.333,426.667z M490.667,405.333 c0,1.971-0.624,3.746-1.126,5.56c-28.508-27.188-113.984-108.227-169.219-155.668c55.418-50.393,140.869-128.57,169.151-154.456 c0.564,1.91,1.194,3.807,1.194,5.897V405.333z"/></symbol><symbol id="redux" viewBox="0 0 256 244"><title>redux</title><path d="M177.381 169.733c9.447-.978 16.614-9.122 16.288-18.896c-.325-9.773-8.47-17.592-18.243-17.592h-.651c-10.1.326-17.918 8.796-17.592 18.895c.326 4.887 2.28 9.122 5.212 12.054c-11.076 21.828-28.016 37.791-53.426 51.148c-17.266 9.122-35.183 12.38-53.1 10.1c-14.66-1.955-26.062-8.47-33.23-19.222c-10.424-15.963-11.401-33.23-2.605-50.496c6.19-12.38 15.962-21.502 22.152-26.063c-1.303-4.235-3.258-11.402-4.235-16.614c-47.237 34.207-42.35 80.468-28.016 102.295c10.75 16.29 32.577 26.389 56.684 26.389c6.515 0 13.03-.652 19.546-2.28c41.699-8.145 73.299-32.905 91.216-69.718zm57.336-40.397c-24.759-28.995-61.245-44.958-102.944-44.958h-5.212c-2.932-5.864-9.122-9.774-15.963-9.774h-.652C99.848 74.93 92.03 83.4 92.355 93.5c.326 9.773 8.47 17.592 18.243 17.592h.651c7.167-.326 13.357-4.887 15.963-11.077h5.864c24.759 0 48.214 7.167 69.39 21.176c16.288 10.751 28.016 24.76 34.531 41.7c5.538 13.683 5.212 27.04-.652 38.443c-9.121 17.266-24.432 26.714-44.63 26.714c-13.031 0-25.41-3.91-31.926-6.842c-3.583 3.258-10.099 8.47-14.66 11.729c14.009 6.515 28.343 10.099 42.025 10.099c31.274 0 54.404-17.267 63.2-34.533c9.447-18.896 8.795-51.474-15.637-79.165zM69.225 175.27c.326 9.774 8.47 17.592 18.243 17.592h.652c10.099-.325 17.917-8.796 17.591-18.895c-.325-9.774-8.47-17.592-18.243-17.592h-.651c-.652 0-1.63 0-2.28.325c-13.357-22.153-18.895-46.26-16.94-72.323c1.302-19.547 7.818-36.488 19.22-50.497c9.447-12.054 27.69-17.918 40.07-18.243c34.531-.652 49.19 42.351 50.168 59.618c4.235.977 11.402 3.258 16.289 4.887C189.434 27.366 156.857 0 125.584 0c-29.32 0-56.359 21.176-67.11 52.451c-14.985 41.7-5.212 81.771 13.031 113.372c-1.628 2.28-2.606 5.864-2.28 9.448z" fill="#764ABC"/><rect x="0" y="0" width="256" height="244" fill="rgba(0, 0, 0, 0)"/></symbol><symbol id="phone-call" viewBox="0 0 505.709 505.709"><title>phone-call</title><g> <g> <path d="M427.554,71.862c-99.206-95.816-256.486-95.816-355.692,0c-98.222,101.697-95.405,263.762,6.292,361.984 c99.206,95.816,256.486,95.816,355.692,0C532.068,332.15,529.251,170.084,427.554,71.862z M421.814,421.814l-0.085-0.085 c-93.352,93.267-244.636,93.198-337.903-0.154S-9.372,176.94,83.98,83.673s244.636-93.198,337.903,0.153 c44.799,44.84,69.946,105.643,69.905,169.028C491.792,316.225,466.622,377.002,421.814,421.814z"/> </g> </g><g> <g> <path d="M396.641,325.729l-47.957-47.787c-10.884-10.91-28.552-10.931-39.462-0.047c-0.016,0.016-0.031,0.031-0.047,0.047 l-27.477,27.477c-2.079,2.084-5.355,2.372-7.765,0.683c-15.039-10.51-29.117-22.333-42.069-35.328 c-11.6-11.574-22.271-24.042-31.915-37.291c-1.748-2.38-1.494-5.68,0.597-7.765l28.16-28.16c10.872-10.893,10.872-28.531,0-39.424 l-47.957-47.957c-11.051-10.565-28.458-10.565-39.509,0l-15.189,15.189c-22.939,22.681-31.128,56.359-21.163,87.04 c7.436,22.447,17.947,43.755,31.232,63.317c11.96,17.934,25.681,34.628,40.96,49.835c16.611,16.73,35.011,31.581,54.869,44.288 c21.83,14.245,45.799,24.904,70.997,31.573c6.478,1.597,13.126,2.399,19.797,2.389c22.871-0.14,44.752-9.346,60.843-25.6 l13.056-13.056C407.513,354.26,407.513,336.622,396.641,325.729z M384.557,353.514c-0.011,0.011-0.022,0.023-0.034,0.034 l0.085-0.256l-13.056,13.056c-16.775,16.987-41.206,23.976-64.427,18.432c-23.395-6.262-45.635-16.23-65.877-29.525 c-18.806-12.019-36.234-26.069-51.968-41.899c-14.477-14.371-27.483-30.151-38.827-47.104 c-12.408-18.242-22.229-38.114-29.184-59.051c-7.973-24.596-1.366-51.585,17.067-69.717l15.189-15.189 c4.223-4.242,11.085-4.257,15.326-0.034c0.011,0.011,0.023,0.022,0.034,0.034l47.957,47.957 c4.242,4.223,4.257,11.085,0.034,15.326c-0.011,0.011-0.022,0.022-0.034,0.034l-28.16,28.16 c-8.08,7.992-9.096,20.692-2.389,29.867c10.185,13.978,21.456,27.131,33.707,39.339c13.659,13.718,28.508,26.197,44.373,37.291 c9.167,6.394,21.595,5.316,29.525-2.56l27.221-27.648c4.223-4.242,11.085-4.257,15.326-0.034c0.011,0.011,0.022,0.022,0.034,0.034 l48.043,48.128C388.765,342.411,388.78,349.272,384.557,353.514z"/> </g> </g></symbol><symbol id="sass-1" viewBox="0 0 512 384"><title>sass-1</title><path fill="#CF649A" d="M440.6 220.6c-17.9.101-33.4 4.4-46.4 10.801-4.8-9.5-9.6-17.801-10.399-24-.9-7.2-2-11.601-.9-20.2C384 178.6 389 166.4 389 165.4c-.101-.9-1.101-5.3-11.4-5.4s-19.2 2-20.2 4.7-3 8.9-4.3 15.3c-1.8 9.4-20.6 42.7-31.3 60.2-3.5-6.8-6.5-12.8-7.101-17.601-.899-7.199-2-11.6-.899-20.199 1.1-8.601 6.1-20.8 6.1-21.8-.1-.9-1.1-5.3-11.399-5.4-10.301-.1-19.2 2-20.2 4.7s-2.1 9.1-4.3 15.3C281.9 201.4 256.9 257 250.4 271.5c-3.3 7.4-6.199 13.3-8.3 17.3-2.1 4-.1.3-.3.7-1.8 3.4-2.8 5.3-2.8 5.3v.101c-1.4 2.5-2.9 4.899-3.601 4.899-.5 0-1.5-6.7.2-15.899 3.7-19.301 12.7-49.4 12.601-50.5 0-.5 1.699-5.801-5.801-8.5-7.3-2.7-9.899 1.8-10.5 1.8-.6 0-1.1 1.6-1.1 1.6s8.1-33.899-15.5-33.899c-14.8 0-35.2 16.1-45.3 30.8-6.4 3.5-20 10.899-34.4 18.8-5.5 3-11.2 6.2-16.6 9.1L117.9 251.9c-28.6-30.5-81.5-52.1-79.3-93.1.8-14.9 6-54.2 101.601-101.8 78.3-39 141-28.3 151.899-4.5 15.5 34-33.5 97.2-114.899 106.3-31 3.5-47.301-8.5-51.4-13-4.3-4.7-4.9-4.9-6.5-4-2.6 1.4-1 5.6 0 8.1 2.4 6.3 12.4 17.5 29.4 23.1 14.899 4.9 51.3 7.6 95.3-9.4 49.3-19.1 87.8-72.1 76.5-116.4-11.5-45.1-86.3-59.9-157-34.8C121.4 27.4 75.8 50.8 43 81.5 4 117.9-2.2 149.7.4 162.9c9.101 47.1 74 77.8 100 100.5-1.3.699-2.5 1.399-3.6 2-13 6.399-62.5 32.3-74.9 59.699-14 31 2.2 53.301 13 56.301 33.4 9.3 67.6-7.4 86.1-34.9 18.399-27.5 16.2-63.2 7.7-79.5l-.301-.6 10.2-6c6.601-3.9 13.101-7.5 18.8-10.601-3.199 8.7-5.5 19-6.699 34-1.4 17.601 5.8 40.4 15.3 49.4 4.2 3.899 9.2 4 12.3 4 11 0 16-9.101 21.5-20 6.8-13.3 12.8-28.7 12.8-28.7s-7.5 41.7 13 41.7c7.5 0 15-9.7 18.4-14.7v.1s.2-.3.6-1a36.13 36.13 0 0 0 1.2-1.899v-.2c3-5.2 9.7-17.1 19.7-36.8 12.899-25.4 25.3-57.2 25.3-57.2s1.2 7.8 4.9 20.6c2.199 7.601 6.999 15.9 10.699 24-3 4.2-4.8 6.601-4.8 6.601l.1.1c-2.399 3.2-5.1 6.601-7.899 10-10.2 12.2-22.4 26.101-24 30.101-1.9 4.699-1.5 8.199 2.2 11 2.7 2 7.5 2.399 12.6 2 9.2-.601 15.6-2.9 18.8-4.301 5-1.8 10.7-4.5 16.2-8.5 10-7.399 16.1-17.899 15.5-31.899-.3-7.7-2.8-15.3-5.9-22.5.9-1.3 1.801-2.601 2.7-4 15.8-23.101 28-48.5 28-48.5s1.2 7.8 4.9 20.6c1.899 6.5 5.7 13.601 9.1 20.601-14.8 12.1-24.1 26.1-27.3 35.3-5.9 17-1.3 24.7 7.4 26.5 3.899.8 9.5-1 13.699-2.8 5.2-1.7 11.5-4.601 17.301-8.9 10-7.4 19.6-17.7 19.1-31.6-.3-6.4-2-12.7-4.3-18.7 12.6-5.2 28.899-8.2 49.6-5.7 44.5 5.2 53.3 33 51.601 44.6-1.7 11.601-11 18-14.101 20-3.1 1.9-4.1 2.601-3.8 4 .4 2.101 1.8 2 4.5 1.601 3.7-.601 23.4-9.5 24.2-30.899 1.2-27.504-24.9-57.504-71.2-57.205zM97.4 336.3c-14.7 16.1-35.4 22.2-44.2 17-9.5-5.5-5.801-29.2 12.3-46.3 11-10.4 25.3-20 34.7-25.9 2.1-1.3 5.3-3.199 9.1-5.5.6-.399 1-.6 1-.6.7-.4 1.5-.9 2.3-1.4 6.7 24.4.3 45.8-15.2 62.7zm107.5-73.1c-5.1 12.5-15.9 44.6-22.4 42.8-5.601-1.5-9-25.8-1.101-49.8 4-12.101 12.5-26.5 17.5-32.101 8.101-9 16.9-12 19.101-8.3 2.6 4.801-9.9 39.601-13.1 47.401zm88.7 42.4c-2.2 1.101-4.2 1.9-5.1 1.301-.7-.4.899-1.9.899-1.9s11.1-11.9 15.5-17.4c2.5-3.199 5.5-6.899 8.7-11.1v1.2C313.6 292.1 299.8 301.7 293.6 305.6zm68.399-15.6c-1.6-1.2-1.399-4.9 4-16.5 2.101-4.6 6.9-12.3 15.2-19.6 1 3 1.601 5.899 1.5 8.6-.099 18-12.899 24.7-20.7 27.5z"/></symbol><symbol id="logos" viewBox="0 0 512 512"><title>logos</title><path style="fill:#F2F2F2;" d="M512,256c0,141.385-114.615,256-256,256C125.555,512,17.899,414.438,2.027,288.298 C0.69,277.723,0,266.94,0,256c0-20.041,2.299-39.549,6.656-58.264C33.029,84.428,134.656,0,256,0 c121.041,0,222.469,84.01,249.135,196.901c3.5,14.764,5.705,30.02,6.51,45.641C511.885,247.003,512,251.486,512,256z"/><polygon style="fill:#3B8739;" points="243.195,276.559 243.195,210 185.553,176.721 127.912,210 127.912,276.559 185.553,309.838 "/><path style="fill:#333333;" d="M470.204,266.459l37.564,21.692l-37.564,21.692l-57.637-33.28v-66.56l57.637-33.28l34.931,20.177 c3.5,14.764,5.705,30.02,6.51,45.641l-21.358,12.33v-23.186l-20.083-11.588l-20.083,11.588v23.186L470.204,266.459z"/><polygon style="fill:#66A060;" points="481.392,249.74 481.392,236.82 470.203,230.36 459.013,236.82 459.013,249.74 470.203,256.201 "/><path style="fill:#333333;" d="M100.686,210.004v87.771l-38.442-21.932v-44.993L43.05,219.763l-19.195,11.086v44.993L2.027,288.298 C0.69,277.723,0,266.94,0,256c0-20.041,2.299-39.549,6.656-58.264l36.394-21.013L100.686,210.004z"/><rect x="127.906" y="210.001" transform="matrix(0.5 0.866 -0.866 0.5 303.4564 -39.0495)" style="fill:#6DA75D;" width="115.281" height="66.557"/><polygon style="fill:#55A344;" points="127.912,276.559 147.704,244.283 127.912,210 "/><polygon style="fill:#639D57;" points="223.979,243.277 243.195,210 185.553,176.721 "/><path style="fill:#333333;" d="M346.551,99.579v88.304l-19.32-11.16l-57.647,33.28v66.56l57.647,33.28l57.637-33.28V120.09 L346.551,99.579z M346.446,254.37l-19.216,11.097l-19.216-11.097v-22.183l19.216-11.097l19.216,11.097V254.37z"/><g> <path style="fill:#66A060;" d="M282.149,358.717c0,0-1.132-9.729-11.539-9.729c-10.408,0-17.534,1.357-17.534,7.127 s20.25,5.77,27.943,8.032c7.693,2.262,14.48,8.145,11.086,18.553c-3.394,10.408-13.802,11.539-29.866,11.539 s-19.685-13.35-19.685-18.553h9.05c0,0-1.132,8.145,9.502,9.502c10.634,1.357,20.802,2.121,22.173-6.108 c1.81-10.861-34.391-5.43-37.559-16.064c-2.676-8.985-1.132-20.815,16.969-22.626c18.101-1.811,28.056,6.181,28.056,18.101 L282.149,358.717z"/> <path style="fill:#66A060;" d="M194.723,401.131l20.008,11.551c10.053,5.804,22.619-1.451,22.619-13.059v-20.242v-37.253h-8.155 v55.227c0,6.339-6.862,10.302-12.353,7.131l-13.965-8.062v-58.94l51.043-29.467l51.043,29.467v58.94l-51.043,29.467l-14.704-8.489 l-9.602,3.872l24.305,14.033l59.198-34.179v-68.351L253.92,298.6l-59.198,34.179v68.352H194.723z"/> </g></symbol><symbol id="expressjs-ar21" viewBox="0 0 120 60"><title>expressjs-ar21</title><path d="M40 41.753V18.708h1.25v3.625a4.74 4.74 0 0 0 .408-.511c1.044-2.166 3.246-3.533 5.65-3.506 2.85-.085 5.166.97 6.527 3.506a11.27 11.27 0 0 1 .272 10.331c-1.268 2.842-4.4 4.255-7.753 3.736a6.27 6.27 0 0 1-5.004-3.302v9.165zm1.25-14.893l.28 2.706c.494 3.08 2.315 4.9 5.174 5.242a5.88 5.88 0 0 0 6.459-3.736c1.112-2.65 1.03-5.65-.22-8.238a5.76 5.76 0 0 0-6.068-3.353 5.61 5.61 0 0 0-5.012 4.144 28.62 28.62 0 0 0-.613 3.234zm39.498 3.132a6.74 6.74 0 0 1-6.587 5.957c-5.242.264-7.702-3.217-8.093-7.234a11.59 11.59 0 0 1 1.021-6.383 7.12 7.12 0 0 1 7.412-3.974 6.81 6.81 0 0 1 6.042 5.183 34.97 34.97 0 0 1 .587 3.83H67.363c-.255 3.642 1.702 6.57 4.476 7.276 3.455.85 6.408-.647 7.48-3.932.238-.843.672-.962 1.438-.723zm-13.395-3.787h12.314c-.077-3.88-2.493-6.7-5.77-6.732-3.7-.06-6.383 2.647-6.544 6.732zm15.94 3.872H84.5a4.84 4.84 0 0 0 2.842 4.17 7.43 7.43 0 0 0 6.451-.17 2.9 2.9 0 0 0 1.702-2.851 2.63 2.63 0 0 0-1.77-2.63c-1.328-.494-2.74-.766-4.093-1.2a30 30 0 0 1-4.119-1.506c-2.18-1.064-2.315-5.208.153-6.52a8.69 8.69 0 0 1 8.306-.128c1.594.88 2.475 2.657 2.213 4.46H95.15c0-.05-.094-.094-.094-.145-.128-3.3-2.902-4.332-5.88-4.042-.9.1-1.753.372-2.553.774a2.55 2.55 0 0 0-1.48 2.553 2.55 2.55 0 0 0 1.702 2.4c1.3.477 2.68.783 4.025 1.157l3.25.85a3.84 3.84 0 0 1 2.638 3.464c.26 1.745-.63 3.46-2.204 4.255-2.842 1.608-7.523 1.183-9.608-.85-1.067-1.073-1.662-2.53-1.65-4.042zm28.78-6.374h-1.132c0-.153-.06-.3-.077-.417a3.7 3.7 0 0 0-3.013-3.557 7.43 7.43 0 0 0-4.774.23 2.9 2.9 0 0 0-2.102 2.766 2.67 2.67 0 0 0 2.042 2.689l5.174 1.328a14.39 14.39 0 0 1 1.65.502c1.65.6 2.77 2.132 2.82 3.883a4.25 4.25 0 0 1-2.6 4.04 9.47 9.47 0 0 1-7.659.077 5.31 5.31 0 0 1-3.2-5.157h1.106c.416 2.005 1.793 3.675 3.682 4.465s4.046.596 5.764-.516a3.04 3.04 0 0 0 1.634-2.842 2.63 2.63 0 0 0-1.796-2.613c-1.328-.494-2.74-.757-4.093-1.2a30.15 30.15 0 0 1-4.144-1.489c-2.128-1.047-2.298-5.157.128-6.468a8.57 8.57 0 0 1 8.442-.094 4.45 4.45 0 0 1 2.136 4.366zm-74.13 11.83a1.95 1.95 0 0 1-2.417-.919l-4.4-6.085-.638-.85-5.106 6.944a1.87 1.87 0 0 1-2.298.902l6.578-8.825-6.12-7.974c.908-.328 1.92.028 2.425.85l4.56 6.16 4.587-6.136a1.83 1.83 0 0 1 2.281-.851L35.02 21.9l-3.217 4.187a.85.85 0 0 0 0 1.268l6.127 8.178zm27.93-16.892v1.2a6.17 6.17 0 0 0-6.57 6.374q0 4.204 0 8.408v.953h-1.217v-16.86h1.2v3.455c1.472-2.52 3.744-3.455 6.595-3.523zM7.333 26.59l.536-2.647c1.472-5.234 7.472-7.412 11.6-4.17 2.417 1.898 3.02 4.587 2.902 7.617H8.754c-.22 5.412 3.685 8.68 8.68 7.012 1.646-.6 2.885-1.968 3.293-3.668.264-.85.7-.996 1.498-.75a6.91 6.91 0 0 1-3.302 5.047 8 8 0 0 1-9.319-1.191c-1.216-1.367-1.95-3.095-2.093-4.92 0-.3-.1-.58-.17-.85q-.01-.757-.01-1.48zm1.438-.366h12.314c-.077-3.923-2.553-6.706-5.855-6.732-3.676-.05-6.306 2.672-6.468 6.715z"/></symbol><symbol id="jwtio-json-web-token" viewBox="0 0 2500 1250"><title>jwtio-json-web-token</title><path d="m0 0h2500v1250h-2500z"/><path d="m673.8 479.4-.6-168.1h-93.8l.6 168.1 46.9 64.4zm-93.8 288.1v168.7h93.8v-168.7l-46.9-64.4z" fill="#fff"/><path d="m673.8 767.5 98.8 136.3 75.6-55-98.8-136.3-75.6-24.4zm-93.8-288.1-99.4-136.3-75.6 55 98.8 136.2 76.2 24.4z" fill="#00f2e6"/><path d="m503.8 534.4-160-51.9-28.8 88.7 160 52.5 75.6-25zm198.7 113.7 46.9 64.4 160 51.9 28.8-88.7-160-51.9z" fill="#00b9f1"/><path d="m778.1 623.8 160-52.5-28.8-88.7-160 51.9-46.9 64.4zm-303.1 0-160 51.9 28.8 88.7 160-51.9 46.9-64.4z" fill="#d63aff"/><path d="m503.8 712.5-98.8 136.3 75.6 55 99.4-136.3v-79.4zm245.6-178.1 98.8-136.3-75.6-55-98.8 136.2v79.4z" fill="#fb015b"/><path d="m1288.1 470.6v218.7c0 48.1-39.4 87.5-87.5 87.5v-43.8c24.4 0 43.8-19.4 43.8-43.8v-218.6zm798.8 43.8h98.7v-43.7h-240.6v43.7h98.1v262.5h43.8zm-273.8-43.8v218.7c0 24.4-19.4 43.8-43.8 43.8s-43.8-19.4-43.8-43.8v-131.2c0-48.1-39.4-87.5-87.5-87.5s-87.5 39.4-87.5 87.5v131.3c0 24.4-19.4 43.8-43.8 43.8s-43.8-19.4-43.8-43.8v-218.8h-43.8v218.7c0 48.1 39.4 87.5 87.5 87.5s87.5-39.4 87.5-87.5v-131.2c0-24.4 19.4-43.8 43.8-43.8s43.8 19.4 43.8 43.8v131.3c0 48.1 39.4 87.5 87.5 87.5s87.5-39.4 87.5-87.5v-218.8z" fill="#fff"/></symbol><symbol id="iconfinder-reactjs-logo-1174949" viewBox="0 0 600 600"><title>iconfinder-reactjs-logo-1174949</title><style type="text/css"> .st0{fill:#00D8FF;} </style><circle class="st0" cx="299.5" cy="299.6" r="50.2"/><g><path class="st0" d="M299.5,414.6c-70.5,0-132.1-8.3-178.2-24.1c-29.9-10.2-55.3-23.8-73.4-39.3c-19.2-16.4-29.4-34.3-29.4-51.6 c0-33.2,36.4-65.7,97.5-86.9c50-17.4,115.2-27.1,183.4-27.1c67,0,131.3,9.4,181,26.6c29.1,10,53.6,23,71,37.4 c18.9,15.8,28.9,33.1,28.9,50c0,34.5-40.7,69.4-106.3,91.1C427.6,406.1,365.6,414.6,299.5,414.6z M299.5,209.6 c-64.7,0-128.7,9.4-175.5,25.7c-56.2,19.6-81.4,46.4-81.4,64.3c0,18.6,27.1,47.9,86.5,68.2c43.6,14.9,102.6,22.8,170.4,22.8 c63.6,0,122.9-8,167-22.7c61.7-20.5,89.9-49.8,89.9-68.3c0-9.5-7.2-20.7-20.3-31.6c-15.1-12.6-37.1-24.1-63.4-33.2 C425.4,218.6,363.9,209.6,299.5,209.6z"/></g><g><path class="st0" d="M185.6,549.8c-10.2,0-19.2-2.2-26.8-6.6c-28.7-16.6-38.7-64.4-26.6-127.9c9.9-52.1,34.1-113.3,68.2-172.4 c33.5-58,73.7-109,113.4-143.5c23.2-20.2,46.7-35,67.9-42.8c23.1-8.5,43.1-8.5,57.7-0.1c29.9,17.2,39.8,70,25.8,137.6 c-9.9,48-33.5,105.9-66.5,163.2c-35.2,61-73.2,110.2-109.9,142.3c-23.8,20.8-48.3,36-70.7,43.9 C206.4,547.7,195.4,549.8,185.6,549.8z M210.7,248.9l10.4,6c-32.3,56-56.2,116.1-65.4,164.9c-11.1,58.5-0.4,93.7,15,102.6 c3.8,2.2,8.8,3.4,14.9,3.4c19.9,0,51.2-12.6,87.4-44.2c34.7-30.3,71-77.5,104.9-136.2c31.8-55.1,54.4-110.5,63.8-156 c13.1-63.7,1.8-102.7-14.3-112c-8.2-4.7-21.5-4.1-37.5,1.8c-18.5,6.8-39.4,20.1-60.4,38.4c-37.7,32.8-76.2,81.6-108.4,137.4 L210.7,248.9z"/></g><g><path class="st0" d="M413.4,550.1c-27.2,0-61.7-16.4-97.7-47.4c-40.2-34.6-81.1-86.1-115.3-145.2v0c-33.6-58-57.6-118.3-67.7-170 c-5.9-30.2-7-57.9-3.2-80.2c4.2-24.3,14.1-41.6,28.8-50.1c29.8-17.3,80.5,0.5,132.1,46.4c36.6,32.5,75,81.9,108.1,139.1 c35.3,61,59,118.5,68.4,166.3c6.1,31,7.1,59.8,2.8,83.2c-4.6,24.9-15,42.6-30,51.3C432.2,547.9,423.3,550.1,413.4,550.1z M221.2,345.5c32.4,56,72.6,106.7,110.2,139c45.1,38.8,80.9,47.2,96.4,38.2c16.1-9.3,27.9-47.4,15.7-109 c-9-45.2-31.7-100.2-65.7-158.9c-31.9-55.1-68.6-102.4-103.3-133.2C225.9,78.4,186.5,68.7,170.4,78c-8.2,4.7-14.3,16.6-17.2,33.4 c-3.3,19.4-2.3,44.2,3.1,71.5C165.9,232,188.9,289.7,221.2,345.5L221.2,345.5z"/></g></symbol><symbol id="postman" viewBox="0 0 256 264"><title>postman</title><g fill="none"><path fill="#F15A24" d="M45.985 256.455L0 258.05l23.573-23.967l22.414 22.374z"/><path d="M254.58 137.58c-8.543 66.613-69.475 113.676-136.077 105.123C51.889 234.158 4.826 173.228 13.37 106.62C21.919 40.008 82.838-7.06 149.457 1.494c66.61 8.542 113.684 69.478 105.124 136.084" fill="#F15A24"/><path d="M164.982 87.532c7.99 8.494.104 28.577.104 28.577s-7.794 28.393-52.421 65.213l-8.33-8.177l56.65-57.899l1.095-1.478c1.507-2.456 2.755-26.401 2.902-26.236" fill="#999"/><path d="M164.982 87.532c7.99 8.494.104 28.577.104 28.577s-7.794 28.393-52.421 65.213l-8.33-8.177l56.65-57.899l1.095-1.478c1.507-2.456 2.755-26.401 2.902-26.236h0z" stroke="#FFF" stroke-width="1.918" stroke-linecap="round" stroke-linejoin="round"/><path d="M92.1 161.108l72.763-73.785c3.693 4.385 4.479 9.11 3.407 15.842c-.722 4.663-8.775 13.981-8.775 13.981l-55.16 56" fill="#666"/><path d="M92.1 161.108l72.763-73.785c3.693 4.385 4.479 9.11 3.407 15.842c-.722 4.663-8.775 13.981-8.775 13.981l-55.16 56" stroke="#FFF" stroke-width="1.201" stroke-linecap="round" stroke-linejoin="round"/><path d="M164.982 87.583L92.099 161.11l.147-.143l-.027.011l-18.083-17.818c37.708-46.905 62.089-55.65 62.089-55.65s15.872-6.196 27.195-1.388c.87.466 1.248.734 1.56 1.463" fill="#FF931E"/><path d="M164.982 87.583L92.099 161.11l.147-.143l-.027.011l-18.083-17.818c37.708-46.905 62.089-55.65 62.089-55.65s15.872-6.196 27.195-1.388c.87.466 1.248.734 1.56 1.463l.002-.002z" stroke="#FFF" stroke-width="1.918" stroke-linecap="round" stroke-linejoin="round"/><path d="M112.665 181.32c-17.388 14.32-39.641 36.816-69.889 52.506l6.728 28.762l-28.516-28.087l71.11-73.393" fill="#999"/><path d="M112.665 181.32c-17.388 14.32-39.641 36.816-69.889 52.506l6.728 28.762l-28.516-28.087l71.11-73.393" stroke="#FFF" stroke-width="1.918" stroke-linecap="round" stroke-linejoin="round"/><path fill="#F15A24" d="M74.623 143.4l17.665 17.596l-40.81 8.84l22.754-26.753l.393.318z"/><path stroke="#FFF" stroke-width="1.918" stroke-linecap="round" stroke-linejoin="round" d="M74.623 143.4l17.665 17.596l-40.81 8.84l22.754-26.753l.393.318z"/><path d="M158.024 66.246c-1.733 15.641 9.528 29.721 25.168 31.465c15.628 1.737 29.721-9.533 31.465-25.168c1.738-15.635-9.54-29.73-25.174-31.468c-15.642-1.728-29.724 9.527-31.459 25.171" fill="#999"/><path d="M158.024 66.246c-1.733 15.641 9.528 29.721 25.168 31.465c15.628 1.737 29.721-9.533 31.465-25.168c1.738-15.635-9.54-29.73-25.174-31.468c-15.642-1.728-29.724 9.527-31.459 25.171h0z" stroke="#FFF" stroke-width="1.918" stroke-linecap="round" stroke-linejoin="round"/><path d="M210.565 85.138c5.256-7.679 4.984-19.167 3.929-22.57c-1.295-4.168-4.191-10.945-9.243-14.468l-26.714 24.606s20.53 22.059 21.065 22.132c.222.026 6.17-2.698 10.963-9.7" fill="#666"/><path d="M210.565 85.138c5.256-7.679 4.984-19.167 3.929-22.57c-1.295-4.168-4.191-10.945-9.243-14.468l-26.714 24.606s20.53 22.059 21.065 22.132c.222.026 6.17-2.698 10.963-9.7h0zm-5.39-19.275s2.569 6.307-.69 11.214l.69-11.214z" stroke="#FFF" stroke-width="1.918" stroke-linecap="round" stroke-linejoin="round"/><path fill="#666" d="M104.964 173.156l-29.482 5.247l17.796-18.49"/><path d="M104.964 173.156l-29.482 5.247l17.796-18.49m-17.97-16.384l37.48 35.274" stroke="#FFF" stroke-width="1.918" stroke-linecap="round" stroke-linejoin="round"/></g><rect x="0" y="0" width="256" height="264" fill="rgba(0, 0, 0, 0)"/></symbol><symbol id="iconfinder-npm-4691529" viewBox="0 0 24 24"><title>iconfinder-npm-4691529</title><title/><path d="M0 7.334v8h6.666v1.332H12v-1.332h12v-8H0zm6.666 6.664H5.334v-4H3.999v4H1.335V8.667h5.331v5.331zm4 0v1.336H8.001V8.667h5.334v5.332h-2.669v-.001zm12.001 0h-1.33v-4h-1.336v4h-1.335v-4h-1.33v4h-2.671V8.667h8.002v5.331zM10.665 10H12v2.667h-1.335V10z"/></symbol><symbol id="icons8-git" viewBox="0 0 48 48"><title>icons8-git</title><path fill="#F4511E" d="M42.2,22.1L25.9,5.8C25.4,5.3,24.7,5,24,5c0,0,0,0,0,0c-0.7,0-1.4,0.3-1.9,0.8l-3.5,3.5l4.1,4.1c0.4-0.2,0.8-0.3,1.3-0.3c1.7,0,3,1.3,3,3c0,0.5-0.1,0.9-0.3,1.3l4,4c0.4-0.2,0.8-0.3,1.3-0.3c1.7,0,3,1.3,3,3s-1.3,3-3,3c-1.7,0-3-1.3-3-3c0-0.5,0.1-0.9,0.3-1.3l-4-4c-0.1,0-0.2,0.1-0.3,0.1v10.4c1.2,0.4,2,1.5,2,2.8c0,1.7-1.3,3-3,3s-3-1.3-3-3c0-1.3,0.8-2.4,2-2.8V18.8c-1.2-0.4-2-1.5-2-2.8c0-0.5,0.1-0.9,0.3-1.3l-4.1-4.1L5.8,22.1C5.3,22.6,5,23.3,5,24c0,0.7,0.3,1.4,0.8,1.9l16.3,16.3c0,0,0,0,0,0c0.5,0.5,1.2,0.8,1.9,0.8s1.4-0.3,1.9-0.8l16.3-16.3c0.5-0.5,0.8-1.2,0.8-1.9C43,23.3,42.7,22.6,42.2,22.1z"/></symbol><symbol id="icons8-heroku" viewBox="0 0 48 48"><title>icons8-heroku</title><path fill="#7e57c2" d="M7,41L7,7c0-2.209,1.791-4,4-4h26c2.209,0,4,1.785,4,3.994c0,8.018,0,25.991,0,34.01C41,43.214,39.209,45,37,45H11C8.791,45,7,43.209,7,41z"/><path fill="#fff" d="M28.292,39.221v-16.68c0,0,1.085-3.991-13.364,1.633c-0.026,0.071-0.026-15.424-0.026-15.424l4.721-0.029v9.928c0,0,13.218-5.206,13.218,3.948v16.623L28.292,39.221L28.292,39.221L28.292,39.221z M30.982,14.73h-5.007c1.802-2.204,3.434-5.98,3.434-5.98h5.178C34.586,8.751,33.7,11.211,30.982,14.73L30.982,14.73L30.982,14.73z M14.987,39.192v-9.498l4.75,4.75L14.987,39.192L14.987,39.192z"/></symbol><symbol id="rope" viewBox="0 0 511.824 511.824"><title>rope</title><path d="m318.35 286.212v90.61c0 48.24-39.25 87.5-87.5 87.5s-87.5-39.26-87.5-87.5v-90.61h40v90.61c0 26.19 21.31 47.5 47.5 47.5s47.5-21.31 47.5-47.5v-90.61z" fill="#f7bd83"/><path d="m318.35 135.002v80.61h-40v-80.61c0-26.19-21.31-47.5-47.5-47.5s-47.5 21.31-47.5 47.5v80.61h-40v-80.61c0-48.24 39.25-87.5 87.5-87.5s87.5 39.26 87.5 87.5z" fill="#f7bd83"/><path d="m358.35 136.402v19.76h-5.5c-19.06 0-34.5 15.44-34.5 34.5v-55.66c0-48.24-39.25-87.5-87.5-87.5s-87.5 39.26-87.5 87.5v80.61h-30.55c-3.43 0-6.65.88-9.45 2.43v-83.04c0-70.55 57.61-127.91 128.25-127.5 70.36.41 126.75 58.55 126.75 128.9z" fill="#f7bd83"/><path d="m358.35 283.782v93.04c0 70.55-57.61 127.91-128.25 127.5-70.36-.41-126.75-58.55-126.75-128.9v-91.64c2.8 1.55 6.02 2.43 9.45 2.43h30.55v90.61c0 48.24 39.25 87.5 87.5 87.5s87.5-39.26 87.5-87.5v-90.61h30.55c3.43 0 6.65-.88 9.45-2.43z" fill="#f7bd83"/><path d="m418.6 175.132v2.06c0 10.48-8.49 18.97-18.97 18.97h-34.39c-3.81 0-6.89 3.08-6.89 6.89v14.99c-2.8-1.55-6.02-2.43-9.45-2.43h-30.55v-24.95c0-19.05 15.45-34.5 34.5-34.5h46.78c10.48 0 18.97 8.49 18.97 18.97z" fill="#f7bd83"/><path d="m368.47 236.542v-1.35c0-10.763-8.719-19.58-19.57-19.58h-236.1c-10.849 0-19.57 8.815-19.57 19.58v1.35c0 5.683 2.431 10.795 6.3 14.37-3.868 3.575-6.3 8.687-6.3 14.37v1.35c0 10.763 8.719 19.58 19.57 19.58h236.1c10.849 0 19.57-8.815 19.57-19.58v-1.35c0-5.683-2.431-10.795-6.3-14.37 3.869-3.575 6.3-8.687 6.3-14.37z" fill="#f7bd83"/><g fill="#d9694b"><path d="m298.35 376.822v-90.61h-20v90.61c0 22.76-16.096 41.825-37.5 46.431 29.697 6.392 57.5-16.377 57.5-46.431z"/><path d="m163.35 376.822v-90.61h-20v90.61c0 52.265 45.647 92.856 97.5 86.925-43.557-4.979-77.5-42.066-77.5-86.925z"/><path d="m240.85 48.077c-51.775-5.918-97.5 34.596-97.5 86.925v80.61h20v-80.61c0-44.859 33.943-81.946 77.5-86.925z"/><path d="m240.85 88.571c21.404 4.606 37.5 23.672 37.5 46.431v80.61h20v-80.61c0-30.118-27.86-52.811-57.5-46.431z"/><path d="m123.35 135.002c0-66.932 51.856-121.985 117.495-127.105-74.106-5.827-137.495 52.961-137.495 127.105v83.04c5.603-3.101 9.804-2.43 20-2.43z"/><path d="m338.35 135.002c0-52.256-45.631-92.854-97.5-86.925 43.557 4.979 77.5 42.066 77.5 86.925v55.66c0-13.879 8.19-25.83 20-31.307z"/><path d="m358.35 283.782c-2.8 1.55-6.02 2.43-9.45 2.43h9.45z"/><path d="m123.35 375.422v-89.21c-10.527 0-14.505.611-20-2.43v91.64c0 73.852 62.228 134.38 137.505 128.505-65.99-5.186-117.505-61.265-117.505-128.505z"/><path d="m338.35 376.822v-90.61h-20v90.61c0 44.859-33.943 81.946-77.5 86.925 51.767 5.921 97.5-34.588 97.5-86.925z"/><path d="m348.9 215.612c3.43 0 6.65.88 9.45 2.43v-2.43z"/><path d="m372.85 156.162h-20c-19.05 0-34.5 15.45-34.5 34.5v24.95h20v-24.95c0-19.05 15.45-34.5 34.5-34.5z"/><path d="m113.23 266.632v-1.35c0-5.683 2.431-10.795 6.3-14.37-3.868-3.575-6.3-8.687-6.3-14.37v-1.35c0-10.763 8.719-19.58 19.57-19.58-20.518 0-23.674-.767-29.45 2.43-6.03 3.34-10.12 9.77-10.12 17.15v1.35c0 5.683 2.431 10.795 6.3 14.37-3.868 3.575-6.3 8.687-6.3 14.37v1.35c0 7.38 4.09 13.81 10.12 17.15 5.64 3.122 8.486 2.43 29.45 2.43-10.85 0-19.57-8.815-19.57-19.58z"/></g><path d="m275.849 258.412h-15v-15h15zm-30 0h-15v-15h15zm-30 0h-86.666v-15h86.666z" fill="#fff"/><path d="m175.845 316.212v60.61c0 30.327 24.673 55 55 55s55-24.673 55-55v-60.61h-15v60.61c0 22.056-17.944 40-40 40s-40-17.944-40-40v-60.61z"/><path d="m285.844 185.612v-50.61c0-30.327-24.673-55-55-55s-55 24.673-55 55v50.61h15v-50.61c0-22.056 17.944-40 40-40s40 17.944 40 40v50.61z"/><path d="m110.845 135.002c0-30.587 11.562-59.738 32.556-82.084l-10.932-10.271c-23.617 25.138-36.624 57.938-36.624 92.355v51.521h15z"/><path d="m135.845 316.212v60.61c0 52.383 42.617 95 95 95s95-42.617 95-95v-60.61h-15v60.61c0 44.112-35.888 80-80 80s-80-35.888-80-80v-60.61z"/><path d="m230.139 496.822c-65.779-.384-119.294-54.844-119.294-121.4v-60.12h-15v60.12c0 75.128 60.715 136.402 134.991 136.402 33.067-.001 64.88-12.104 89.652-34.127l-9.967-11.211c-22.195 19.735-50.709 30.537-80.382 30.336z"/><path d="m350.844 376.822c0 29.377-10.773 57.674-30.335 79.677l11.211 9.967c22.005-24.752 34.124-56.588 34.124-89.644v-61.521h-15z"/><path d="m399.635 148.662h-33.79v-12.26c-.001-75.1-60.694-136.402-134.974-136.402-31.745 0-62.568 11.251-86.869 31.727l9.665 11.471c21.772-18.345 49.47-28.343 77.884-28.195 65.779.384 119.293 54.844 119.293 121.4v12.308c-9.396.452-18.116 4.075-25 9.866v-23.574c0-52.383-42.616-95-95-95s-95 42.617-95 95v50.61h15v-50.61c0-44.112 35.888-80 80-80s80 35.888 80 80v55.66h15c0-15.105 12.421-27 27-27h46.79c6.319 0 11.46 5.146 11.46 11.47v2.061c0 6.324-5.141 11.47-11.46 11.47h-20.189v15h20.189c14.59 0 26.46-11.874 26.46-26.47v-2.061c0-14.597-11.87-26.471-26.459-26.471z"/><path d="m348.9 208.112h-236.1c-14.976 0-27.07 12.167-27.07 27.08 0 5.4.752 10.305 4.145 15.72-3.342 5.334-4.145 10.199-4.145 15.72 0 14.91 12.09 27.08 27.07 27.08h236.1c22.12 0 34.156-24.872 22.925-42.8 3.342-5.334 4.145-10.199 4.145-15.72-.001-14.937-12.119-27.08-27.07-27.08zm12.069 58.52c0 6.562-5.303 12.08-12.069 12.08-255.949 0-237.842.764-241.917-1.49-3.857-2.137-6.254-6.194-6.254-10.59v-1.35c0-3.397 1.381-6.544 3.889-8.861l5.963-5.509-5.963-5.509c-2.508-2.317-3.889-5.464-3.889-8.861v-1.35c0-4.396 2.396-8.453 6.252-10.589 3.932-2.176-13.25-1.491 241.918-1.491 6.748 0 12.069 5.501 12.069 12.08 0 2.732-.067 5.236-2.155 8.22h-57.631v15h57.631c1.991 2.844 2.156 5.288 2.156 8.22z"/></symbol><symbol id="entertainment" viewBox="0 0 300 300"><title>entertainment</title><path d="m262 30h-224c-4.418 0-8 3.582-8 8v224c0 4.418 3.582 8 8 8h224c4.418 0 8-3.582 8-8v-224c0-4.418-3.582-8-8-8zm-216 16h104v16h-80c-4.418 0-8 3.582-8 8v56h-16zm0 96h16v88c0 4.418 3.582 8 8 8h56v16h-80zm144 112h-48v-16h48zm64 0h-48v-16h24c4.418 0 8-3.582 8-8v-16c0-4.418-3.582-8-8-8s-8 3.582-8 8v8h-16v-24c0-4.418-3.582-8-8-8s-8 3.582-8 8v24h-48v-80h16v32c0 4.418 3.582 8 8 8h52.686l-2.343 2.343c-3.125 3.125-3.125 8.189 0 11.314 1.562 1.562 3.609 2.343 5.657 2.343s4.095-.781 5.657-2.343l16-16c3.125-3.125 3.125-8.189 0-11.314l-16-16c-3.124-3.123-8.189-3.123-11.313 0-3.125 3.125-3.125 8.189 0 11.314l2.343 2.343h-44.687v-32c0-4.418-3.582-8-8-8h-32c-4.418 0-8 3.582-8 8v88h-48v-80h16v56c0 4.418 3.582 8 8 8s8-3.582 8-8v-88h80v32c0 4.418 3.582 8 8 8s8-3.582 8-8v-40c0-4.418-3.582-8-8-8h-96c-4.418 0-8 3.582-8 8v24h-16v-48h144v56c0 4.418 3.582 8 8 8s8-3.582 8-8v-64c0-4.418-3.582-8-8-8h-64v-16h88z"/></symbol><symbol id="briefcase" viewBox="0 0 512 512"><title>briefcase</title><path d="m361 60.5v50h-30v-50c0-8.27-6.73-15-15-15h-120c-8.28 0-15 6.73-15 15v50h-30v-50c0-24.81 20.18-45 45-45h120c24.81 0 45 20.19 45 45z" fill="#3f5379"/><path d="m361 60.5v50h-30v-50c0-8.27-6.73-15-15-15h-60v-30h60c24.81 0 45 20.19 45 45z" fill="#29406b"/><path d="m512 206.76v274.74c0 8.28-6.72 15-15 15h-482c-8.29 0-15-6.72-15-15v-274.74z" fill="#3f5379"/><path d="m512 206.76v274.74c0 8.28-6.72 15-15 15h-241v-289.74z" fill="#29406b"/><path d="m90.99 390.5h120c8.284 0 15 6.716 15 15v91h-150v-91c0-8.284 6.716-15 15-15z" fill="#56678a"/><path d="m436.99 405.5v91h-151v-91c0-8.284 6.716-15 15-15h121c8.284 0 15 6.716 15 15z" fill="#3f5379"/><path d="m512 150.5v61.28c-.41 32.72-27.08 59.22-60.01 59.22h-391.98c-32.88 0-59.6-26.45-60.01-59.24v-61.26c0-24.81 20.18-45 45-45h422c24.81 0 45 20.19 45 45z" fill="#56678a"/><path d="m512 150.5v61.28c-.41 32.72-27.08 59.22-60.01 59.22h-195.99v-165.5h211c24.81 0 45 20.19 45 45z" fill="#3f5379"/><path d="m155.995 335.5c-19.299 0-35-15.701-35-35v-61c0-2.757 2.243-5 5-5h60c2.757 0 5 2.243 5 5v61c0 19.299-15.701 35-35 35z" fill="#febb33"/><path d="m355.995 335.5c-19.299 0-35-15.701-35-35v-61c0-2.757 2.243-5 5-5h60c2.757 0 5 2.243 5 5v61c0 19.299-15.701 35-35 35z" fill="#f19637"/></symbol><symbol id="mongodb-1" viewBox="0 0 512 146"><title>mongodb-1</title><path d="M476.713 60.463c-.46.092-.922 1.107-.922 1.66-.092 3.692-.184 13.474-.184 20.118 0 .185.276.554.553.554 1.384.092 4.706.184 7.567.184 3.968 0 6.275-.553 7.568-1.106 3.321-1.662 4.89-5.261 4.89-9.23 0-8.95-6.275-12.365-15.596-12.365-.646-.092-2.49-.092-3.876.185zm23.81 41.25c0-9.136-6.737-14.212-18.918-14.212-.554 0-4.43-.092-5.353.092-.277.093-.645.278-.645.555 0 6.551-.093 16.98.184 21.04.184 1.753 1.477 4.245 3.046 4.983 1.66.923 5.444 1.107 8.028 1.107 7.29 0 13.658-4.06 13.658-13.565zm-42.634-46.325c.922 0 3.69.276 10.796.276 6.737 0 12.089-.184 18.641-.184 8.028 0 19.102 2.86 19.102 14.857 0 5.906-4.153 10.613-9.597 12.92-.276.092-.276.276 0 .368 7.751 1.939 14.581 6.737 14.581 15.78 0 8.86-5.537 14.489-13.566 17.996-4.891 2.122-10.981 2.86-17.164 2.86-4.707 0-17.349-.553-24.362-.368-.738-.278.646-3.6 1.291-4.153 1.662-.093 2.953-.185 4.707-.739 2.492-.645 2.768-1.384 3.137-5.167.185-3.23.185-14.674.185-22.794 0-11.166.093-18.733 0-22.424-.092-2.86-1.107-3.784-3.137-4.338-1.57-.276-4.153-.646-6.276-.922-.462-.462 1.107-3.6 1.662-3.968zm-53.248 57.399c2.216 1.752 6.553 2.49 10.429 2.49 4.983 0 9.966-.921 14.765-5.26 4.891-4.428 8.305-11.257 8.305-22.146 0-10.429-3.968-18.919-12.089-23.901-4.614-2.862-10.52-4.06-17.349-4.06-2.03 0-3.968.092-5.167.645-.278.185-.923 1.015-.923 1.476-.185 1.846-.185 16.057-.185 24.363 0 8.582 0 20.579.185 21.963 0 1.385.645 3.507 2.03 4.43zm-20.948-57.4c1.754 0 8.49.277 11.72.277 5.815 0 9.967-.276 20.948-.276 9.228 0 16.98 2.491 22.517 7.197 6.736 5.814 10.244 13.843 10.244 23.624 0 13.935-6.368 21.964-12.736 26.578-6.366 4.706-14.672 7.474-26.484 7.474-6.275 0-17.072-.184-26.024-.277h-.092c-.461-.83.738-4.06 1.476-4.152 2.4-.277 3.046-.37 4.246-.83 1.937-.739 2.307-1.754 2.584-5.168.276-6.368.184-14.027.184-22.702 0-6.182.092-18.272-.093-22.148-.276-3.229-1.66-4.06-4.429-4.614-1.384-.276-3.23-.646-5.813-.922-.37-.647 1.291-3.507 1.752-4.06z" fill="#8E714E"/><path d="M272.033 116.385c-2.307-.277-3.968-.645-5.998-1.568-.277-.185-.739-1.107-.739-1.477-.184-3.23-.184-12.458-.184-18.64 0-4.984-.83-9.321-2.953-12.366-2.492-3.508-6.09-5.537-10.705-5.537-4.06 0-9.505 2.768-14.027 6.644-.092.092-.83.739-.738-.277 0-1.015.185-3.045.277-4.43.093-1.292-.646-1.937-.646-1.937-2.953 1.476-11.258 3.414-14.304 3.69-2.214.463-2.768 2.585-.46 3.323h.092c2.49.738 4.152 1.569 5.443 2.4.923.738.831 1.753.831 2.584.092 6.92.092 17.533-.184 23.347-.092 2.307-.738 3.137-2.4 3.506l.185-.092c-1.292.277-2.307.553-3.876.738-.554.554-.554 3.507 0 4.153 1.015 0 6.367-.277 10.798-.277 6.09 0 9.228.277 10.796.277.646-.738.831-3.507.462-4.153-1.754-.092-3.046-.276-4.245-.646-1.661-.37-2.123-1.199-2.216-3.137-.183-4.892-.183-15.227-.183-22.24 0-1.938.553-2.861 1.106-3.415 2.123-1.845 5.538-3.137 8.583-3.137 2.953 0 4.89.923 6.367 2.123 2.03 1.66 2.676 4.06 2.953 5.813.461 3.968.277 11.812.277 18.641 0 3.691-.277 4.614-1.66 5.075-.647.277-2.308.647-4.246.83-.646.647-.461 3.508 0 4.154 2.676 0 5.814-.277 10.428-.277 5.721 0 9.413.277 10.89.277.46-.554.645-3.23.276-3.969zm25.562-35.25c-4.89 0-7.936 3.783-7.936 9.688 0 5.999 2.676 12.92 10.243 12.92 1.292 0 3.692-.554 4.798-1.846 1.754-1.66 2.954-4.983 2.954-8.49 0-7.659-3.784-12.273-10.059-12.273zm-.646 40.787c-1.845 0-3.138.554-3.968 1.016-3.876 2.49-5.629 4.89-5.629 7.752 0 2.675 1.015 4.797 3.23 6.643 2.676 2.307 6.367 3.415 11.073 3.415 9.413 0 13.566-5.076 13.566-10.058 0-3.508-1.754-5.815-5.352-7.106-2.584-1.108-7.29-1.662-12.92-1.662zm.646 23.994c-5.629 0-9.69-1.2-13.196-3.876-3.415-2.584-4.891-6.46-4.891-9.136 0-.738.185-2.769 1.846-4.614 1.014-1.108 3.23-3.23 8.49-6.829.184-.092.276-.184.276-.37 0-.184-.185-.369-.369-.46-4.337-1.661-5.629-4.338-5.999-5.814v-.185c-.091-.554-.276-1.107.555-1.661.646-.461 1.569-1.015 2.583-1.66 1.569-.924 3.23-1.939 4.245-2.77.185-.184.185-.368.185-.553 0-.185-.185-.37-.37-.461-6.458-2.123-9.688-6.922-9.688-14.12 0-4.706 2.122-8.951 5.905-11.627 2.584-2.03 9.044-4.522 13.289-4.522h.277c4.337.092 6.736 1.015 10.15 2.215 1.846.646 3.6.922 6 .922 3.598 0 5.167-1.107 6.458-2.398.093.184.278.646.37 1.845.092 1.2-.277 2.953-1.2 4.245-.738 1.015-2.399 1.754-4.06 1.754h-.462c-1.661-.185-2.4-.37-2.4-.37l-.368.185c-.092.185 0 .369.092.646l.093.185c.184.83.553 3.321.553 3.968 0 7.567-3.045 10.888-6.275 13.38-3.138 2.307-6.736 3.783-10.797 4.153-.092 0-.46 0-1.292.092-.461 0-1.107.093-1.2.093h-.092c-.738.184-2.583 1.107-2.583 2.675 0 1.384.83 3.046 4.798 3.323.83.092 1.66.092 2.584.185 5.26.368 11.812.83 14.857 1.845 4.245 1.568 6.921 5.352 6.921 9.874 0 6.83-4.89 13.197-13.011 17.164-3.968 1.754-7.937 2.677-12.274 2.677zm52.6-64.32c-1.937 0-3.691.46-4.983 1.383-3.598 2.215-5.444 6.645-5.444 13.104 0 12.09 6.09 20.58 14.765 20.58 2.584 0 4.614-.739 6.367-2.215 2.676-2.216 4.061-6.645 4.061-12.828 0-11.996-5.999-20.025-14.765-20.025zm1.662 39.496c-15.688 0-21.317-11.535-21.317-22.332 0-7.567 3.045-13.381 9.135-17.534 4.338-2.676 9.506-4.152 14.12-4.152 11.996 0 20.394 8.582 20.394 20.948 0 8.397-3.322 15.041-9.69 19.102-3.045 2.03-8.305 3.968-12.643 3.968h.001zM187.411 81.595c-1.938 0-3.691.461-4.984 1.384-3.598 2.215-5.444 6.645-5.444 13.104 0 12.09 6.09 20.58 14.765 20.58 2.584 0 4.614-.739 6.368-2.215 2.675-2.216 4.06-6.645 4.06-12.828 0-11.996-5.906-20.025-14.765-20.025zm1.661 39.497c-15.688 0-21.317-11.535-21.317-22.332 0-7.567 3.045-13.381 9.135-17.534 4.338-2.676 9.506-4.152 14.12-4.152 11.997 0 20.394 8.582 20.394 20.948 0 8.397-3.322 15.041-9.69 19.102-2.953 2.03-8.213 3.968-12.642 3.968zm-105.478-.923c-.185-.276-.37-1.107-.277-2.122 0-.739.185-1.2.277-1.384 1.938-.278 2.953-.555 4.06-.831 1.846-.462 2.584-1.476 2.676-3.783.278-5.537.278-16.058.185-23.348v-.185c0-.83 0-1.846-1.015-2.584-1.477-.922-3.23-1.752-5.537-2.4-.83-.275-1.384-.737-1.292-1.29 0-.554.554-1.2 1.754-1.385 3.045-.277 10.98-2.214 14.118-3.599.185.184.462.739.462 1.477l-.092 1.014c-.093 1.016-.185 2.216-.185 3.415 0 .369.37.646.738.646.185 0 .37-.092.554-.185 5.906-4.614 11.258-6.275 14.026-6.275 4.523 0 8.03 2.123 10.706 6.552.184.278.369.37.646.37.184 0 .46-.092.553-.277 5.445-4.153 10.89-6.645 14.488-6.645 8.582 0 13.658 6.368 13.658 17.165 0 3.045 0 7.013-.092 10.613 0 3.229-.092 6.182-.092 8.305 0 .46.645 1.937 1.66 2.214 1.292.646 3.046.923 5.353 1.292h.092c.185.646-.184 3.045-.553 3.507-.554 0-1.385 0-2.307-.092a136.208 136.208 0 0 0-7.014-.185c-5.721 0-8.674.092-11.536.277-.183-.738-.276-2.953 0-3.507 1.662-.276 2.492-.554 3.508-.83 1.846-.554 2.307-1.385 2.4-3.784 0-1.753.368-16.703-.186-20.302-.553-3.691-3.322-8.028-9.413-8.028-2.307 0-5.905.923-9.412 3.598-.184.185-.37.646-.37.923v.093c.37 1.937.37 4.153.37 7.567v5.998c0 4.153-.093 8.029 0 10.981 0 2.031 1.2 2.492 2.215 2.862.554.091.922.184 1.384.276.83.185 1.661.37 2.953.646.185.37.185 1.569-.092 2.584-.093.554-.278.83-.37.923-3.137-.092-6.367-.185-11.073-.185-1.384 0-3.784.093-5.814.093-1.662 0-3.23.092-4.152.092-.093-.185-.278-.83-.278-1.846 0-.83.185-1.476.37-1.661.461-.092.83-.184 1.292-.184 1.106-.185 2.03-.37 2.952-.554 1.57-.461 2.123-1.292 2.215-3.322.277-4.614.554-17.81-.092-21.133-1.107-5.352-4.152-8.028-9.044-8.028-2.86 0-6.46 1.384-9.412 3.6-.462.368-.831 1.29-.831 2.121v5.445c0 6.644 0 14.95.092 18.549.093 1.106.461 2.399 2.584 2.86.462.092 1.2.277 2.123.37l1.66.276c.186.554.093 2.769-.276 3.507-.923 0-2.03-.092-3.323-.092-1.937-.093-4.429-.185-7.197-.185-3.23 0-5.537.092-7.383.185-1.292-.185-2.307-.185-3.414-.185z" fill="#442D22"/><path d="M35.053 142.317l-3.783-1.293s.462-19.286-6.46-20.67c-4.613-5.353.74-227.013 17.35-.739 0 0-5.722 2.86-6.737 7.752-1.108 4.799-.37 14.95-.37 14.95z" fill="#FFF"/><path d="M35.053 142.317l-3.783-1.293s.462-19.286-6.46-20.67c-4.613-5.353.74-227.013 17.35-.739 0 0-5.722 2.86-6.737 7.752-1.108 4.799-.37 14.95-.37 14.95z" fill="#A6A385"/><path d="M37.084 123.676s33.13-21.779 25.377-67.09c-7.474-32.943-25.1-43.74-27.038-47.893C33.301 5.74 31.27.573 31.27.573l1.385 91.634c0 .093-2.861 28.054 4.43 31.47" fill="#FFF"/><path d="M37.084 123.676s33.13-21.779 25.377-67.09c-7.474-32.943-25.1-43.74-27.038-47.893C33.301 5.74 31.27.573 31.27.573l1.385 91.634c0 .093-2.861 28.054 4.43 31.47" fill="#499D4A"/><path d="M29.333 124.875S-1.767 103.65.079 66.277C1.832 28.903 23.795 10.539 28.04 7.217c2.769-2.953 2.861-4.061 3.046-7.014 1.938 4.153 1.569 62.106 1.845 68.934.83 26.3-1.476 50.756-3.598 55.738z" fill="#FFF"/><path d="M29.333 124.875S-1.767 103.65.079 66.277C1.832 28.903 23.795 10.539 28.04 7.217c2.769-2.953 2.861-4.061 3.046-7.014 1.938 4.153 1.569 62.106 1.845 68.934.83 26.3-1.476 50.756-3.598 55.738z" fill="#58AA50"/></symbol><symbol id="icons8-firebase" viewBox="0 0 48 48"><title>icons8-firebase</title><path fill="#ff8f00" d="M8,37L23.234,8.436c0.321-0.602,1.189-0.591,1.494,0.02L30,19L8,37z"/><path fill="#ffa000" d="M8,36.992l5.546-34.199c0.145-0.895,1.347-1.089,1.767-0.285L26,22.992L8,36.992z"/><path fill="#ff6f00" d="M8.008 36.986L8.208 36.829 25.737 22.488 20.793 13.012z"/><path fill="#ffc400" d="M8,37l26.666-25.713c0.559-0.539,1.492-0.221,1.606,0.547L40,37l-15,8.743 c-0.609,0.342-1.352,0.342-1.961,0L8,37z"/></symbol><symbol id="yarn-seeklogocom" viewBox="0 0 256 256"><title>yarn-seeklogocom</title><path d="M128,0 C57.3281853,0 0,57.3281853 0,128 C0,198.671815 57.3281853,256 128,256 C198.671815,256 256,198.671815 256,128 C256,57.3281853 198.671815,0 128,0" fill="#368FB9"/><path d="M203.317375,174.060232 C195.410039,175.938224 191.40695,177.667954 181.621622,184.043243 C166.350579,193.927413 149.646332,198.523552 149.646332,198.523552 C149.646332,198.523552 148.262548,200.599228 144.259459,201.538224 C137.340541,203.218533 111.295753,204.651737 108.923552,204.701158 C102.548263,204.750579 98.6440154,203.07027 97.5567568,200.450965 C94.2455598,192.543629 102.301158,189.08417 102.301158,189.08417 C102.301158,189.08417 100.522008,187.996911 99.4841699,187.008494 C98.5451737,186.069498 97.5567568,184.191506 97.2602317,184.883398 C96.0247104,187.898069 95.3822394,195.261776 92.0710425,198.572973 C87.5243243,203.169112 78.9250965,201.637066 73.834749,198.96834 C68.2501931,196.003089 74.2301158,189.034749 74.2301158,189.034749 C74.2301158,189.034749 71.215444,190.8139 68.7938224,187.156757 C66.619305,183.796139 64.5930502,178.06332 65.1366795,170.996139 C65.7297297,162.940541 74.7243243,155.132046 74.7243243,155.132046 C74.7243243,155.132046 73.1428571,143.221622 78.3320463,131.014672 C83.027027,119.894981 95.6787645,110.949807 95.6787645,110.949807 C95.6787645,110.949807 85.0532819,99.1876448 89.0069498,88.611583 C91.576834,81.6926641 92.6146718,81.7420849 93.4548263,81.4455598 C96.4200772,80.3088803 99.2864865,79.0733591 101.411583,76.7505792 C112.037066,65.2849421 125.578378,67.4594595 125.578378,67.4594595 C125.578378,67.4594595 132.003089,47.9382239 137.933591,51.7436293 C139.762162,52.9297297 146.335135,67.5583012 146.335135,67.5583012 C146.335135,67.5583012 153.352896,63.4563707 154.143629,64.988417 C158.393822,73.2416988 158.888031,89.0069498 157.010039,98.5945946 C153.847104,114.409266 145.939768,122.909653 142.776834,128.247104 C142.035521,129.482625 151.27722,133.386873 157.10888,149.54749 C162.495753,164.324324 157.701931,176.728958 158.542085,178.112741 C158.690347,178.359846 158.739768,178.458687 158.739768,178.458687 C158.739768,178.458687 164.917375,178.952896 177.322008,171.292664 C183.944402,167.190734 191.802317,162.594595 200.74749,162.495753 C209.396139,162.34749 209.840927,172.478764 203.317375,174.060232 L203.317375,174.060232 Z M215.079537,166.795367 C214.189961,159.777606 208.259459,154.934363 200.648649,155.033205 C189.281853,155.181467 179.743629,161.062548 173.417761,164.966795 C170.946718,166.498842 168.821622,167.635521 166.99305,168.475676 C167.388417,162.742857 167.042471,155.230888 164.07722,146.977606 C160.469498,137.093436 155.626255,131.014672 152.166795,127.505792 C156.169884,121.674131 161.655598,113.173745 164.225483,100.027799 C166.449421,88.8092664 165.757529,71.3637066 160.667181,61.5783784 C159.629344,59.6015444 157.899614,58.1683398 155.725097,57.5752896 C154.835521,57.3281853 153.155212,56.8339768 149.844015,57.772973 C144.85251,47.4440154 143.12278,46.3567568 141.788417,45.4671815 C139.020849,43.6880309 135.759073,43.2926641 132.694981,44.4293436 C128.59305,45.9119691 125.08417,49.8656371 121.772973,56.8833977 C121.278764,57.9212355 120.833977,58.9096525 120.43861,59.8980695 C114.162162,60.3428571 104.277992,62.6162162 95.9258687,71.6602317 C94.8880309,72.7969112 92.8617761,73.6370656 90.7366795,74.4277992 L90.7861004,74.4277992 C86.4370656,75.9598456 84.4602317,79.5181467 82.03861,85.9428571 C78.6779923,94.9374517 82.1374517,103.783784 85.5474903,109.516602 C80.9019305,113.667954 74.7243243,120.290347 71.4625483,128.049421 C67.4100386,137.637066 66.965251,147.027027 67.1135135,152.117375 C63.6540541,155.774517 58.3166023,162.644015 57.7235521,170.353668 C56.9328185,181.127413 60.8370656,188.441699 62.5667954,191.110425 C63.0610039,191.901158 63.6046332,192.543629 64.1976834,193.1861 C64,194.520463 63.9505792,195.953668 64.2471042,197.436293 C64.8895753,200.895753 67.0640927,203.712741 70.3752896,205.491892 C76.8988417,208.951351 85.992278,210.433977 93.0100386,206.925097 C95.5305019,209.593822 100.126641,212.163707 108.478764,212.163707 L108.972973,212.163707 C111.098069,212.163707 138.081853,210.730502 145.939768,208.803089 C149.448649,207.962934 151.87027,206.480309 153.451737,205.145946 C158.492664,203.564479 172.429344,198.820077 185.57529,190.319691 C194.866409,184.290347 198.078764,183.005405 204.997683,181.325097 C211.718919,179.694208 215.919691,173.566023 215.079537,166.795367 L215.079537,166.795367 Z" fill="#FFFFFF"/></symbol></svg>